<?xml version="1.0" encoding="UTF-8" standalone="no"?><!-- Generator: Gravit.io --><svg xmlns="http://www.w3.org/2000/svg" xmlns:xlink="http://www.w3.org/1999/xlink" style="isolation:isolate" viewBox="597 325.5 168.8 72.9" width="168.8pt" height="72.9pt"><defs><clipPath id="_clipPath_AC0VSSAcDCoOZxXarAGgwQ3YlYDhqpY4"><rect x="597" y="325.5" width="168.8" height="72.9"/></clipPath></defs><g clip-path="url(#_clipPath_AC0VSSAcDCoOZxXarAGgwQ3YlYDhqpY4)"><g><g><g><path d=" M 604.7 377.4 L 603.8 377.4 C 603.7 377.4 603.6 377.4 603.6 377.2 L 603.6 373.9 C 603.6 372.4 603.7 371 603.7 370.2 L 603.6 370.2 C 603.5 370.4 603.4 371 603.2 371.3 L 601.2 375.8 C 601.2 375.9 601.1 375.9 601.1 375.9 L 600.7 375.9 C 600.6 375.9 600.6 375.9 600.6 375.8 L 598.6 371.3 C 598.5 371 598.3 370.5 598.2 370.2 L 598.1 370.2 C 598.2 371 598.2 372.3 598.2 373.9 L 598.2 377.2 C 598.2 377.3 598.2 377.4 598 377.4 L 597.2 377.4 C 597.1 377.4 597 377.4 597 377.2 L 597 367.5 C 597 367.4 597 367.3 597.2 367.3 L 598.1 367.3 C 598.2 367.3 598.2 367.3 598.2 367.4 L 600.7 373.4 C 600.7 373.5 600.9 373.9 600.9 374 L 600.9 374 C 600.9 373.9 601.1 373.5 601.1 373.4 L 603.6 367.6 C 603.6 367.5 603.7 367.5 603.7 367.5 L 604.6 367.5 C 604.7 367.5 604.8 367.5 604.8 367.7 L 604.8 377.4 C 604.9 377.4 604.8 377.4 604.7 377.4 Z " fill="rgb(109,121,110)"/><path d=" M 612.8 374 L 608.8 374 C 608.7 374 608.6 374 608.6 374.2 L 608.6 374.9 C 608.6 375.7 609.3 376.5 610.2 376.5 C 610.7 376.5 611.3 376.2 611.6 375.6 C 611.6 375.5 611.7 375.5 611.8 375.5 L 612.6 375.9 C 612.7 375.9 612.7 376 612.7 376.1 C 612.6 376.4 612.4 376.6 612.2 376.8 C 611.8 377.2 611.2 377.5 610.2 377.5 C 608.5 377.5 607.4 376.4 607.4 374.9 L 607.4 372.8 C 607.4 371.3 608.5 370.2 610.2 370.2 C 611.9 370.2 613 371.3 613 372.8 L 613 373.8 C 613 374 612.9 374 612.8 374 Z  M 611.7 372.8 C 611.7 372 611.1 371.3 610.1 371.3 C 609.1 371.3 608.5 372 608.5 372.9 L 608.5 373.1 C 608.5 373.2 608.6 373.2 608.7 373.2 L 611.5 373.2 C 611.6 373.2 611.7 373.2 611.7 373 L 611.7 372.8 Z " fill="rgb(109,121,110)"/><path d=" M 620.2 377.4 L 619.4 377.4 C 619.3 377.4 619.2 377.4 619.2 377.2 L 619.2 376.8 C 619.2 376.6 619 376.6 618.9 376.7 C 618.5 377.2 617.9 377.4 617.5 377.4 C 615.8 377.4 614.7 376.3 614.7 374.8 L 614.7 373 C 614.7 371.4 615.9 370.4 617.3 370.4 C 617.8 370.4 618.3 370.6 618.7 371.1 C 618.8 371.2 619 371.2 619 371 L 619 367.7 C 619 367.6 619 367.5 619.2 367.5 L 620.1 367.5 C 620.2 367.5 620.3 367.5 620.3 367.7 L 620.3 377.4 C 620.3 377.4 620.3 377.4 620.2 377.4 Z  M 619.1 373 C 619.1 372.2 618.4 371.4 617.5 371.4 C 616.6 371.4 615.9 372.1 615.9 373 L 615.9 374.8 C 615.9 375.6 616.6 376.4 617.5 376.4 C 618.3 376.4 619.1 375.7 619.1 374.8 L 619.1 373 Z " fill="rgb(109,121,110)"/><path d=" M 623.5 368.9 C 623.1 368.9 622.7 368.6 622.7 368.1 C 622.7 367.7 623 367.3 623.5 367.3 C 623.9 367.3 624.3 367.6 624.3 368.1 C 624.3 368.5 624 368.9 623.5 368.9 Z  M 624 377.4 L 623.1 377.4 C 623 377.4 622.9 377.4 622.9 377.2 L 622.9 370.4 C 622.9 370.3 622.9 370.2 623.1 370.2 L 624 370.2 C 624.1 370.2 624.2 370.2 624.2 370.4 L 624.2 377.2 C 624.2 377.4 624.1 377.4 624 377.4 Z " fill="rgb(109,121,110)"/><path d=" M 631.9 374 L 627.9 374 C 627.8 374 627.7 374 627.7 374.2 L 627.7 374.9 C 627.7 375.7 628.4 376.5 629.3 376.5 C 629.8 376.5 630.4 376.2 630.7 375.6 C 630.7 375.5 630.8 375.5 630.9 375.5 L 631.7 375.9 C 631.8 375.9 631.8 376 631.8 376.1 C 631.7 376.4 631.5 376.6 631.3 376.8 C 630.9 377.2 630.3 377.5 629.3 377.5 C 627.6 377.5 626.5 376.4 626.5 374.9 L 626.5 372.8 C 626.5 371.3 627.6 370.2 629.3 370.2 C 631 370.2 632.1 371.3 632.1 372.8 L 632.1 373.8 C 632.1 374 632 374 631.9 374 Z  M 630.8 372.8 C 630.8 372 630.2 371.3 629.2 371.3 C 628.2 371.3 627.6 372 627.6 372.9 L 627.6 373.1 C 627.6 373.2 627.7 373.2 627.8 373.2 L 630.6 373.2 C 630.7 373.2 630.8 373.2 630.8 373 L 630.8 372.8 Z " fill="rgb(109,121,110)"/><path d=" M 639.9 377.4 L 639 377.4 C 638.9 377.4 638.8 377.4 638.8 377.2 L 638.8 372.9 C 638.8 372.1 638.1 371.3 637.2 371.3 C 636.3 371.3 635.6 372 635.6 372.9 L 635.6 377.2 C 635.6 377.3 635.6 377.4 635.4 377.4 L 634.5 377.4 C 634.4 377.4 634.3 377.4 634.3 377.2 L 634.3 370.4 C 634.3 370.3 634.3 370.2 634.5 370.2 L 635.3 370.2 C 635.4 370.2 635.5 370.2 635.5 370.4 L 635.5 370.8 C 635.5 371 635.7 371.1 635.8 370.9 C 636.2 370.4 636.8 370.2 637.2 370.2 C 638.9 370.2 640 371.3 640 372.8 L 640 377.1 C 640 377.4 640 377.4 639.9 377.4 Z " fill="rgb(109,121,110)"/><path d=" M 643.2 368.9 C 642.8 368.9 642.4 368.6 642.4 368.1 C 642.4 367.7 642.7 367.3 643.2 367.3 C 643.6 367.3 644 367.6 644 368.1 C 643.9 368.5 643.6 368.9 643.2 368.9 Z  M 643.6 377.4 L 642.7 377.4 C 642.6 377.4 642.5 377.4 642.5 377.2 L 642.5 370.4 C 642.5 370.3 642.5 370.2 642.7 370.2 L 643.6 370.2 C 643.7 370.2 643.8 370.2 643.8 370.4 L 643.8 377.2 C 643.8 377.4 643.7 377.4 643.6 377.4 Z " fill="rgb(109,121,110)"/><path d=" M 651.8 377.4 L 650.9 377.4 C 650.8 377.4 650.7 377.4 650.7 377.2 L 650.7 372.9 C 650.7 372.1 650 371.3 649.1 371.3 C 648.2 371.3 647.5 372 647.5 372.9 L 647.5 377.2 C 647.5 377.3 647.5 377.4 647.3 377.4 L 646.5 377.4 C 646.4 377.4 646.3 377.4 646.3 377.2 L 646.3 370.4 C 646.3 370.3 646.3 370.2 646.5 370.2 L 647.3 370.2 C 647.4 370.2 647.5 370.2 647.5 370.4 L 647.5 370.8 C 647.5 371 647.7 371.1 647.8 370.9 C 648.2 370.4 648.8 370.2 649.2 370.2 C 650.9 370.2 652 371.3 652 372.8 L 652 377.1 C 652 377.4 651.9 377.4 651.8 377.4 Z " fill="rgb(109,121,110)"/><path d=" M 659.9 377.4 L 659 377.4 C 658.9 377.4 658.8 377.4 658.8 377.2 L 658.8 372.9 C 658.8 372.1 658.1 371.3 657.2 371.3 C 656.3 371.3 655.6 372 655.6 372.9 L 655.6 377.2 C 655.6 377.3 655.6 377.4 655.4 377.4 L 654.5 377.4 C 654.5 377.4 654.5 377.4 654.5 377.3 L 654.5 370.5 C 654.5 370.4 654.5 370.3 654.7 370.3 L 655.5 370.3 C 655.6 370.3 655.7 370.3 655.7 370.5 L 655.7 370.9 C 655.7 371.1 655.9 371.2 656 371 C 656.4 370.5 657 370.3 657.4 370.3 C 659.1 370.3 660.2 371.4 660.2 372.9 L 660.2 377.2 C 660.1 377.4 660 377.4 659.9 377.4 Z " fill="rgb(109,121,110)"/><path d=" M 665.1 377.6 C 663.4 377.6 662.3 376.5 662.3 375 L 662.3 372.9 C 662.3 371.4 663.4 370.3 665.1 370.3 C 666.8 370.3 667.9 371.4 667.9 372.9 L 667.9 375 C 668 376.5 666.9 377.6 665.1 377.6 Z  M 666.7 372.8 C 666.7 372 666.1 371.3 665.1 371.3 C 664.1 371.3 663.5 372 663.5 372.9 L 663.5 375.1 C 663.5 375.9 664.1 376.6 665.1 376.6 C 666.1 376.6 666.7 375.9 666.7 375 L 666.7 372.8 Z " fill="rgb(109,121,110)"/><path d=" M 673.1 377.3 C 673.1 377.4 673 377.4 673 377.4 L 672.2 377.4 C 672.1 377.4 672.1 377.4 672.1 377.3 L 669.4 370.5 C 669.3 370.4 669.3 370.4 669.5 370.4 L 670.5 370.4 C 670.6 370.4 670.6 370.4 670.6 370.5 L 672.4 375 C 672.4 375.1 672.6 375.5 672.6 375.6 L 672.7 375.6 C 672.7 375.5 672.8 375.1 672.9 375 L 674.7 370.5 C 674.7 370.4 674.8 370.4 674.8 370.4 L 675.8 370.4 C 675.9 370.4 676 370.5 675.9 370.6 L 673.1 377.3 Z " fill="rgb(109,121,110)"/><path d=" M 682.3 377.4 L 681.5 377.4 C 681.4 377.4 681.3 377.4 681.3 377.2 L 681.3 376.8 C 681.3 376.6 681.1 376.5 681 376.7 C 680.5 377.2 680 377.4 679.6 377.4 L 679 377.4 C 677.9 377.4 676.9 376.6 676.9 375.5 L 676.9 375.4 C 676.9 374.2 677.8 373.5 679 373.5 L 680.9 373.5 C 681 373.5 681.1 373.5 681.1 373.3 L 681.1 372.8 C 681.1 371.9 680.4 371.3 679.5 371.3 C 679 371.3 678.5 371.6 678.1 372.2 C 678.1 372.3 678 372.3 677.9 372.3 L 677.1 371.9 C 677 371.9 677 371.8 677 371.7 C 677.2 371.4 677.4 371.1 677.6 370.9 C 678 370.5 678.6 370.3 679.4 370.3 C 681.1 370.3 682.2 371.3 682.2 372.9 L 682.2 377.4 C 682.5 377.4 682.5 377.4 682.3 377.4 Z  M 681.2 374.6 C 681.2 374.5 681.2 374.4 681 374.4 L 679.1 374.4 C 678.6 374.4 678.3 374.8 678.3 375.2 L 678.3 375.5 C 678.3 375.9 678.7 376.3 679.1 376.3 L 679.7 376.3 C 680.4 376.3 681 375.7 681.2 375 L 681.2 374.6 L 681.2 374.6 Z " fill="rgb(109,121,110)"/><path d=" M 687.7 377.6 C 687.1 377.5 686.5 377.3 686.1 377 C 685.5 376.5 685.2 375.8 685.2 375 L 685.2 371.7 C 685.2 371.6 685.2 371.5 685 371.5 L 684.1 371.5 C 684 371.5 683.9 371.5 683.9 371.3 L 683.9 370.9 L 685.7 369 C 685.7 369 685.8 369 685.8 369 L 686.2 369 C 686.3 369 686.4 369 686.4 369.2 L 686.4 370.3 C 686.4 370.4 686.4 370.5 686.6 370.5 L 687.7 370.5 C 687.8 370.5 687.9 370.5 687.9 370.7 L 687.9 371.5 C 687.9 371.6 687.9 371.7 687.7 371.7 L 686.6 371.7 C 686.5 371.7 686.4 371.7 686.4 371.9 L 686.4 375.2 C 686.4 375.9 686.9 376.6 687.7 376.7 C 687.8 376.7 687.8 376.8 687.8 376.9 L 687.8 377.4 C 687.9 377.5 687.8 377.6 687.7 377.6 Z " fill="rgb(109,121,110)"/><path d=" M 690.6 368.9 C 690.2 368.9 689.8 368.6 689.8 368.1 C 689.8 367.7 690.1 367.3 690.6 367.3 C 691 367.3 691.4 367.6 691.4 368.1 C 691.4 368.5 691.1 368.9 690.6 368.9 Z  M 691.1 377.4 L 690.2 377.4 C 690.1 377.4 690 377.4 690 377.2 L 690 370.4 C 690 370.3 690 370.2 690.2 370.2 L 691.1 370.2 C 691.2 370.2 691.3 370.2 691.3 370.4 L 691.3 377.2 C 691.3 377.4 691.2 377.4 691.1 377.4 Z " fill="rgb(109,121,110)"/><path d=" M 696.4 377.6 C 694.7 377.6 693.6 376.5 693.6 375 L 693.6 372.9 C 693.6 371.4 694.7 370.3 696.4 370.3 C 698.1 370.3 699.2 371.4 699.2 372.9 L 699.2 375 C 699.2 376.5 698.1 377.6 696.4 377.6 Z  M 698 372.8 C 698 372 697.4 371.3 696.4 371.3 C 695.4 371.3 694.8 372 694.8 372.9 L 694.8 375.1 C 694.8 375.9 695.4 376.6 696.4 376.6 C 697.4 376.6 698 375.9 698 375 L 698 372.8 Z " fill="rgb(109,121,110)"/><path d=" M 706.7 377.4 L 705.8 377.4 C 705.7 377.4 705.6 377.4 705.6 377.2 L 705.6 372.9 C 705.6 372.1 704.9 371.3 704 371.3 C 703.1 371.3 702.4 372 702.4 372.9 L 702.4 377.2 C 702.4 377.3 702.4 377.4 702.2 377.4 L 701.3 377.4 C 701.2 377.4 701.1 377.4 701.1 377.2 L 701.1 370.4 C 701.1 370.3 701.1 370.2 701.3 370.2 L 702.1 370.2 C 702.2 370.2 702.3 370.2 702.3 370.4 L 702.3 370.8 C 702.3 371 702.5 371.1 702.6 370.9 C 703 370.4 703.6 370.2 704 370.2 C 705.7 370.2 706.8 371.3 706.8 372.8 L 706.8 377.1 C 706.8 377.4 706.8 377.4 706.7 377.4 Z " fill="rgb(109,121,110)"/><path d=" M 711.9 377.6 L 711.4 377.6 C 710.5 377.6 709.9 377.3 709.5 377 C 709.2 376.8 709 376.5 708.9 376.2 C 708.9 376.1 708.9 376 709 376 L 709.8 375.6 C 709.9 375.6 710 375.6 710 375.7 C 710.3 376.2 710.9 376.6 711.4 376.6 L 711.9 376.6 C 712.8 376.6 713.2 376.1 713.2 375.5 C 713.2 374.7 712.2 374.6 711.1 374.4 C 710.1 374.2 708.9 373.7 708.9 372.4 C 708.9 371 710 370.2 711.4 370.2 L 711.9 370.2 C 712.7 370.2 713.3 370.4 713.7 370.8 C 714 371 714.2 371.3 714.4 371.6 C 714.4 371.7 714.4 371.8 714.3 371.8 L 713.5 372.2 C 713.4 372.2 713.3 372.2 713.3 372.1 C 713 371.6 712.5 371.2 711.9 371.2 L 711.4 371.2 C 710.5 371.2 710.1 371.6 710.1 372.2 C 710.1 373.1 711.1 373.2 712.2 373.4 C 713.4 373.7 714.4 374 714.4 375.3 C 714.5 376.6 713.6 377.6 711.9 377.6 Z " fill="rgb(109,121,110)"/><path d=" M 721.5 377.4 L 716.2 377.4 C 716 377.4 716 377.3 716.1 377.2 L 719.4 371.7 C 719.5 371.6 719.4 371.5 719.3 371.5 L 716.4 371.5 C 716.3 371.5 716.2 371.5 716.2 371.3 L 716.2 370.5 C 716.2 370.4 716.2 370.3 716.4 370.3 L 721.4 370.3 C 721.6 370.3 721.6 370.4 721.5 370.5 L 718.2 376 C 718.1 376.1 718.2 376.2 718.3 376.2 L 721.6 376.2 C 721.7 376.2 721.8 376.2 721.8 376.4 L 721.8 377.2 C 721.6 377.4 721.6 377.4 721.5 377.4 Z " fill="rgb(109,121,110)"/><path d=" M 728.8 374 L 724.8 374 C 724.7 374 724.6 374 724.6 374.2 L 724.6 374.9 C 724.6 375.7 725.3 376.5 726.2 376.5 C 726.7 376.5 727.3 376.2 727.6 375.6 C 727.6 375.5 727.7 375.5 727.8 375.5 L 728.6 375.9 C 728.7 375.9 728.7 376 728.7 376.1 C 728.6 376.4 728.4 376.6 728.2 376.8 C 727.8 377.2 727.2 377.5 726.2 377.5 C 724.5 377.5 723.4 376.4 723.4 374.9 L 723.4 372.8 C 723.4 371.3 724.5 370.2 726.2 370.2 C 727.9 370.2 729 371.3 729 372.8 L 729 373.8 C 728.9 374 728.9 374 728.8 374 Z  M 727.7 372.8 C 727.7 372 727.1 371.3 726.1 371.3 C 725.1 371.3 724.5 372 724.5 372.9 L 724.5 373.1 C 724.5 373.2 724.6 373.2 724.7 373.2 L 727.5 373.2 C 727.6 373.2 727.7 373.2 727.7 373 L 727.7 372.8 Z " fill="rgb(109,121,110)"/><path d=" M 736.4 377.4 L 735.5 377.4 C 735.4 377.4 735.3 377.4 735.3 377.2 L 735.3 372.9 C 735.3 372.1 734.6 371.3 733.7 371.3 C 732.8 371.3 732.1 372 732.1 372.9 L 732.1 377.2 C 732.1 377.3 732.1 377.4 731.9 377.4 L 731 377.4 C 730.9 377.4 730.8 377.4 730.8 377.2 L 730.8 370.4 C 730.8 370.3 730.8 370.2 731 370.2 L 731.8 370.2 C 731.9 370.2 732 370.2 732 370.4 L 732 370.8 C 732 371 732.2 371.1 732.3 370.9 C 732.7 370.4 733.3 370.2 733.7 370.2 C 735.4 370.2 736.5 371.3 736.5 372.8 L 736.5 377.1 C 736.6 377.4 736.5 377.4 736.4 377.4 Z " fill="rgb(109,121,110)"/><path d=" M 741.7 377.6 C 741.1 377.5 740.5 377.3 740.1 377 C 739.5 376.5 739.2 375.8 739.2 375 L 739.2 371.7 C 739.2 371.6 739.2 371.5 739 371.5 L 738.1 371.5 C 738 371.5 737.9 371.5 737.9 371.3 L 737.9 370.9 L 739.7 369 C 739.7 369 739.8 369 739.8 369 L 740.2 369 C 740.3 369 740.4 369 740.4 369.2 L 740.4 370.3 C 740.4 370.4 740.4 370.5 740.6 370.5 L 741.7 370.5 C 741.8 370.5 741.9 370.5 741.9 370.7 L 741.9 371.5 C 741.9 371.6 741.9 371.7 741.7 371.7 L 740.6 371.7 C 740.5 371.7 740.4 371.7 740.4 371.9 L 740.4 375.2 C 740.4 375.9 740.9 376.6 741.7 376.7 C 741.8 376.7 741.8 376.8 741.8 376.9 L 741.8 377.4 C 741.9 377.5 741.9 377.6 741.7 377.6 Z " fill="rgb(109,121,110)"/><path d=" M 747.2 371.7 C 747.1 371.7 747 371.7 746.9 371.7 C 746 371.7 745.3 372.3 745.3 373.2 L 745.3 377.3 C 745.3 377.4 745.3 377.5 745.1 377.5 L 744.2 377.5 C 744.1 377.5 744 377.5 744 377.3 L 744 370.5 C 744 370.4 744 370.3 744.2 370.3 L 745 370.3 C 745.1 370.3 745.2 370.3 745.2 370.5 L 745.2 371.1 C 745.2 371.3 745.4 371.4 745.5 371.2 C 745.9 370.6 746.5 370.3 746.9 370.3 L 747.2 370.3 C 747.3 370.3 747.3 370.4 747.3 370.5 L 747.3 371.5 C 747.4 371.7 747.3 371.7 747.2 371.7 Z " fill="rgb(109,121,110)"/><path d=" M 754.3 377.4 L 753.5 377.4 C 753.4 377.4 753.3 377.4 753.3 377.2 L 753.3 376.8 C 753.3 376.6 753.1 376.5 753 376.7 C 752.6 377.2 752 377.4 751.6 377.4 C 749.9 377.4 748.8 376.3 748.8 374.8 L 748.8 370.5 C 748.8 370.4 748.8 370.3 749 370.3 L 749.9 370.3 C 750 370.3 750.1 370.3 750.1 370.5 L 750.1 374.8 C 750.1 375.6 750.8 376.4 751.7 376.4 C 752.6 376.4 753.3 375.7 753.3 374.8 L 753.3 370.5 C 753.3 370.4 753.3 370.3 753.5 370.3 L 754.4 370.3 C 754.5 370.3 754.6 370.3 754.6 370.5 L 754.6 377.3 C 754.4 377.4 754.4 377.4 754.3 377.4 Z " fill="rgb(109,121,110)"/><path d=" M 765.5 377.4 L 764.6 377.4 C 764.5 377.4 764.4 377.4 764.4 377.2 L 764.4 372.9 C 764.4 372 763.7 371.3 763 371.3 C 762.4 371.3 761.6 372 761.6 372.9 L 761.6 377.2 C 761.6 377.3 761.6 377.4 761.4 377.4 L 760.5 377.4 C 760.4 377.4 760.3 377.4 760.3 377.2 L 760.3 372.9 C 760.3 372 759.6 371.3 758.9 371.3 C 758.3 371.3 757.5 372 757.5 372.9 L 757.5 377.2 C 757.5 377.3 757.5 377.4 757.3 377.4 L 756.5 377.4 C 756.4 377.4 756.3 377.4 756.3 377.2 L 756.3 370.4 C 756.3 370.3 756.3 370.2 756.5 370.2 L 757.3 370.2 C 757.4 370.2 757.5 370.2 757.5 370.4 L 757.5 370.8 C 757.5 371 757.6 371.1 757.8 370.9 C 758.2 370.4 758.8 370.2 759.3 370.2 C 759.9 370.2 760.6 370.4 761 371 C 761.1 371.1 761.2 371.1 761.3 371 C 761.8 370.4 762.5 370.2 763.2 370.2 C 764.7 370.2 765.8 371.3 765.8 372.8 L 765.8 377.1 C 765.7 377.4 765.6 377.4 765.5 377.4 Z " fill="rgb(109,121,110)"/><path d=" M 600.3 394.8 L 597.2 394.8 C 597.1 394.8 597 394.8 597 394.6 L 597 384.9 C 597 384.8 597 384.7 597.2 384.7 L 600.3 384.7 C 602 384.7 603.1 385.8 603.1 387.5 L 603.1 387.7 C 603.1 388.3 602.6 389.2 602 389.5 C 601.9 389.6 601.9 389.7 602 389.8 C 602.5 390.1 603.1 390.9 603.1 391.7 L 603.1 391.9 C 603.1 393.7 602 394.8 600.3 394.8 Z  M 601.9 387.5 C 601.9 386.7 601.2 385.9 600.3 385.9 L 598.5 385.9 C 598.4 385.9 598.3 385.9 598.3 386.1 L 598.3 389.1 C 598.3 389.2 598.3 389.3 598.5 389.3 L 600.4 389.3 C 601.3 389.3 602 388.6 602 387.7 L 602 387.5 L 601.9 387.5 Z  M 601.9 391.8 C 601.9 391 601.2 390.3 600.3 390.3 L 598.5 390.3 C 598.4 390.3 598.3 390.3 598.3 390.5 L 598.3 393.6 C 598.3 393.7 598.3 393.8 598.5 393.8 L 600.4 393.8 C 601.3 393.8 602 393.1 602 392.2 L 602 391.8 L 601.9 391.8 Z " fill="rgb(109,121,110)"/><path d=" M 610.4 394.8 L 609.6 394.8 C 609.5 394.8 609.4 394.8 609.4 394.6 L 609.4 394.2 C 609.4 394 609.2 393.9 609.1 394.1 C 608.6 394.6 608.1 394.8 607.7 394.8 L 607.1 394.8 C 606 394.8 605 394 605 392.9 L 605 392.8 C 605 391.6 605.9 390.9 607.1 390.9 L 609 390.9 C 609.1 390.9 609.2 390.9 609.2 390.7 L 609.2 390.2 C 609.2 389.3 608.5 388.7 607.6 388.7 C 607.1 388.7 606.6 389 606.2 389.6 C 606.2 389.7 606.1 389.7 606 389.7 L 605.2 389.3 C 605.1 389.3 605.1 389.2 605.1 389.1 C 605.3 388.8 605.5 388.5 605.7 388.3 C 606.1 387.9 606.7 387.7 607.5 387.7 C 609.2 387.7 610.3 388.7 610.3 390.3 L 610.3 394.8 C 610.5 394.8 610.5 394.8 610.4 394.8 Z  M 609.3 392 C 609.3 391.9 609.3 391.8 609.1 391.8 L 607.2 391.8 C 606.7 391.8 606.4 392.2 606.4 392.6 L 606.4 392.9 C 606.4 393.3 606.8 393.7 607.2 393.7 L 607.8 393.7 C 608.5 393.7 609.1 393.1 609.3 392.4 L 609.3 392 Z " fill="rgb(109,121,110)"/><path d=" M 615.5 394.8 C 615.1 394.8 614.5 394.6 614.1 394.1 C 614 394 613.8 394 613.8 394.2 L 613.8 394.6 C 613.8 394.7 613.8 394.8 613.6 394.8 L 612.8 394.8 C 612.7 394.8 612.6 394.8 612.6 394.6 L 612.6 384.9 C 612.6 384.8 612.6 384.7 612.8 384.7 L 613.7 384.7 C 613.8 384.7 613.9 384.7 613.9 384.9 L 613.9 388.2 C 613.9 388.4 614.1 388.4 614.2 388.3 C 614.6 387.8 615.2 387.6 615.6 387.6 C 617.1 387.6 618.3 388.7 618.3 390.2 L 618.3 392 C 618.3 393.7 617.2 394.8 615.5 394.8 Z  M 617.1 390.4 C 617.1 389.6 616.4 388.8 615.5 388.8 C 614.6 388.8 613.9 389.5 613.9 390.4 L 613.9 392.2 C 613.9 393 614.6 393.8 615.5 393.8 C 616.3 393.8 617.1 393.1 617.1 392.2 L 617.1 390.4 Z " fill="rgb(109,121,110)"/><path d=" M 625.9 391.4 L 621.9 391.4 C 621.8 391.4 621.7 391.4 621.7 391.6 L 621.7 392.3 C 621.7 393.1 622.4 393.9 623.3 393.9 C 623.8 393.9 624.4 393.6 624.7 393 C 624.7 392.9 624.8 392.9 624.9 392.9 L 625.7 393.3 C 625.8 393.3 625.8 393.4 625.8 393.5 C 625.7 393.8 625.5 394 625.3 394.2 C 624.9 394.6 624.3 394.9 623.3 394.9 C 621.6 394.9 620.5 393.8 620.5 392.3 L 620.5 390.2 C 620.5 388.7 621.6 387.6 623.3 387.6 C 625 387.6 626.1 388.7 626.1 390.2 L 626.1 391.2 C 626 391.4 626 391.4 625.9 391.4 Z  M 624.8 390.1 C 624.8 389.3 624.2 388.6 623.2 388.6 C 622.2 388.6 621.6 389.3 621.6 390.2 L 621.6 390.4 C 621.6 390.5 621.7 390.5 621.8 390.5 L 624.6 390.5 C 624.7 390.5 624.8 390.5 624.8 390.3 L 624.8 390.1 Z " fill="rgb(109,121,110)"/><path d=" M 629.1 394.8 L 628.2 394.8 C 628.1 394.8 628 394.8 628 394.6 L 628 384.9 C 628 384.8 628 384.7 628.2 384.7 L 629.1 384.7 C 629.2 384.7 629.3 384.7 629.3 384.9 L 629.3 394.6 C 629.3 394.8 629.2 394.8 629.1 394.8 Z " fill="rgb(109,121,110)"/><path d=" M 634.4 395 L 633.9 395 C 633 395 632.4 394.7 632 394.4 C 631.7 394.2 631.5 393.9 631.4 393.6 C 631.4 393.5 631.4 393.4 631.5 393.4 L 632.3 393 C 632.4 393 632.5 393 632.5 393.1 C 632.8 393.6 633.4 394 633.9 394 L 634.4 394 C 635.3 394 635.7 393.5 635.7 392.9 C 635.7 392.1 634.7 392 633.6 391.8 C 632.6 391.6 631.4 391.1 631.4 389.8 C 631.4 388.4 632.5 387.6 633.9 387.6 L 634.4 387.6 C 635.2 387.6 635.8 387.8 636.2 388.2 C 636.5 388.4 636.7 388.7 636.9 389 C 636.9 389.1 636.9 389.2 636.8 389.2 L 636 389.6 C 635.9 389.6 635.8 389.6 635.8 389.5 C 635.5 389 635 388.6 634.4 388.6 L 633.9 388.6 C 633 388.6 632.6 389 632.6 389.6 C 632.6 390.5 633.6 390.6 634.7 390.8 C 635.9 391.1 636.9 391.4 636.9 392.7 C 637 393.9 636.1 395 634.4 395 Z " fill="rgb(109,121,110)"/><path d=" M 641.9 394.8 C 641.5 394.8 640.9 394.6 640.5 394.1 C 640.4 394 640.2 394 640.2 394.2 L 640.2 394.6 C 640.2 394.7 640.2 394.8 640 394.8 L 639.2 394.8 C 639.1 394.8 639 394.8 639 394.6 L 639 384.9 C 639 384.8 639 384.7 639.2 384.7 L 640.1 384.7 C 640.2 384.7 640.3 384.7 640.3 384.9 L 640.3 388.2 C 640.3 388.4 640.5 388.4 640.6 388.3 C 641 387.8 641.6 387.6 642 387.6 C 643.5 387.6 644.7 388.7 644.7 390.2 L 644.7 392 C 644.7 393.7 643.6 394.8 641.9 394.8 Z  M 643.5 390.4 C 643.5 389.6 642.8 388.8 641.9 388.8 C 641 388.8 640.3 389.5 640.3 390.4 L 640.3 392.2 C 640.3 393 641 393.8 641.9 393.8 C 642.7 393.8 643.5 393.1 643.5 392.2 L 643.5 390.4 Z " fill="rgb(109,121,110)"/><path d=" M 652.3 391.4 L 648.3 391.4 C 648.2 391.4 648.1 391.4 648.1 391.6 L 648.1 392.3 C 648.1 393.1 648.8 393.9 649.7 393.9 C 650.2 393.9 650.8 393.6 651.1 393 C 651.1 392.9 651.2 392.9 651.3 392.9 L 652.1 393.3 C 652.2 393.3 652.2 393.4 652.2 393.5 C 652.1 393.8 651.9 394 651.7 394.2 C 651.3 394.6 650.7 394.9 649.7 394.9 C 648 394.9 646.9 393.8 646.9 392.3 L 646.9 390.2 C 646.9 388.7 648 387.6 649.7 387.6 C 651.4 387.6 652.5 388.7 652.5 390.2 L 652.5 391.2 C 652.4 391.4 652.4 391.4 652.3 391.4 Z  M 651.2 390.1 C 651.2 389.3 650.6 388.6 649.6 388.6 C 648.6 388.6 648 389.3 648 390.2 L 648 390.4 C 648 390.5 648.1 390.5 648.2 390.5 L 651 390.5 C 651.1 390.5 651.2 390.5 651.2 390.3 L 651.2 390.1 Z " fill="rgb(109,121,110)"/><path d=" M 657.5 389.1 C 657.4 389.1 657.3 389.1 657.2 389.1 C 656.3 389.1 655.6 389.7 655.6 390.6 L 655.6 394.7 C 655.6 394.8 655.6 394.9 655.4 394.9 L 654.5 394.9 C 654.4 394.9 654.3 394.9 654.3 394.7 L 654.3 387.9 C 654.3 387.8 654.3 387.7 654.5 387.7 L 655.3 387.7 C 655.4 387.7 655.5 387.7 655.5 387.9 L 655.5 388.5 C 655.5 388.7 655.7 388.8 655.8 388.6 C 656.2 388 656.8 387.7 657.2 387.7 L 657.5 387.7 C 657.6 387.7 657.6 387.8 657.6 387.9 L 657.6 388.9 C 657.7 389 657.7 389.1 657.5 389.1 Z " fill="rgb(109,121,110)"/><path d=" M 663.1 398.4 L 660.9 398.4 C 659.8 398.4 658.8 397.7 658.8 396.5 L 658.8 396.4 C 658.8 395.8 659.2 395.3 659.7 394.9 C 659.8 394.8 659.8 394.8 659.8 394.7 C 659.6 394.4 659.5 394.2 659.5 393.9 C 659.5 393.5 659.6 393.2 659.8 392.9 C 659.9 392.8 659.8 392.7 659.8 392.7 C 659.1 392.2 658.8 391.5 658.8 390.6 L 658.8 390.4 C 658.8 388.8 660 387.8 661.6 387.8 C 662 387.8 662.6 388 663 388.5 C 663.1 388.6 663.3 388.6 663.3 388.4 L 663.3 388 C 663.3 387.9 663.3 387.8 663.5 387.8 L 664.3 387.8 C 664.4 387.8 664.5 387.8 664.5 388 L 664.5 390.6 C 664.5 392.2 663.3 393.2 661.7 393.2 C 661.6 393.2 661.4 393.2 661.2 393.2 C 660.9 393.3 660.7 393.6 660.7 393.8 C 660.7 394.1 660.9 394.4 661.2 394.4 L 663.1 394.4 C 664.3 394.4 665.2 395.1 665.2 396.3 L 665.2 396.4 C 665.1 397.6 664.2 398.4 663.1 398.4 Z  M 663.2 390.4 C 663.2 389.6 662.5 388.8 661.6 388.8 C 660.7 388.8 660 389.5 660 390.4 L 660 390.6 C 660 391.4 660.7 392.2 661.6 392.2 C 662.4 392.2 663.2 391.5 663.2 390.6 L 663.2 390.4 Z  M 663.9 396.3 C 663.9 395.9 663.5 395.5 663.1 395.5 L 660.9 395.5 C 660.5 395.5 660.1 395.8 660.1 396.3 L 660.1 396.4 C 660.1 396.9 660.4 397.2 660.9 397.2 L 663.1 397.2 C 663.6 397.2 663.9 396.8 663.9 396.4 L 663.9 396.3 Z " fill="rgb(109,121,110)"/></g><g><path d=" M 648.8 360.2 L 641.7 360.2 C 641.2 360.2 640.9 360 640.9 359.4 L 640.9 326.4 C 640.9 325.9 641.1 325.6 641.7 325.6 L 648.8 325.6 C 649.3 325.6 649.6 325.8 649.6 326.4 L 649.6 359.4 C 649.6 359.9 649.4 360.2 648.8 360.2 Z " fill="rgb(225,27,34)"/></g><g><path d=" M 686.6 328 L 673.4 350 C 672.9 350.8 672.6 351.4 672.6 351.7 C 672.6 352.1 672.9 352.3 673.4 352.3 L 686.4 352.3 C 686.9 352.3 687.2 352.5 687.2 353.1 L 687.2 359.4 C 687.2 359.9 687 360.2 686.4 360.2 L 658.3 360.2 C 657.8 360.2 657.5 360 657.5 359.6 C 657.5 359.3 657.8 358.8 658.3 357.9 L 671.5 336 C 672 335.2 672.4 334.5 672.4 334.2 C 672.4 333.8 672.1 333.6 671.6 333.6 L 659.8 333.6 C 659.3 333.6 659 333.4 659 332.8 L 659 326.4 C 659 325.9 659.2 325.6 659.8 325.6 L 686.7 325.6 C 687.2 325.6 687.5 325.8 687.5 326.2 C 687.5 326.5 687.2 327.2 686.6 328 Z " fill="rgb(109,121,110)"/></g><path d=" M 630.8 325.6 L 623.7 325.6 C 623.6 325.6 623.6 325.6 623.5 325.6 L 623.5 325.6 C 623.5 325.6 623.4 325.6 623.4 325.6 C 623.4 325.6 623.4 325.6 623.4 325.6 C 623.2 325.7 623 325.8 622.9 326 C 622.8 326.2 622.5 326.8 622.3 327.2 L 615.9 340.1 L 615.9 340.1 C 614.9 342.2 614.4 343.3 614.4 343.3 L 614.1 343.3 C 614.1 343.3 613.7 342.1 612.6 340.1 L 606.2 327 C 606 326.6 605.7 326.1 605.6 325.9 C 605.5 325.7 605.2 325.5 604.9 325.5 L 597.8 325.5 C 597.8 325.5 597.8 325.5 597.8 325.5 C 597.7 325.5 597.7 325.5 597.6 325.5 C 597.2 325.6 597 325.8 597 326.2 L 597 359.2 C 597 359.7 597.2 360 597.8 360 L 604.9 360 C 605.4 360 605.7 359.8 605.7 359.2 L 605.7 357.9 C 605.7 349.6 605.6 343.3 605.6 343.3 L 605.8 343.3 C 607 346.6 607.7 347.1 609.5 351 L 609.5 351 L 609.7 351.3 C 609.9 351.7 610.3 352 610.7 352 C 610.8 352 610.8 352 610.9 352 C 610.9 352 610.9 352 610.9 352 L 617.8 352 C 617.8 352 617.8 352 617.8 352 C 617.9 352 617.9 352 618 352 C 618.4 351.9 618.9 351.6 619 351.3 L 619.1 351 L 619.1 351 C 620.9 347.1 621.7 346.5 622.8 343.3 L 623 343.3 C 623 343.3 622.9 349.7 622.9 357.9 L 622.9 359.4 C 622.9 359.9 623.1 360.2 623.7 360.2 L 630.8 360.2 C 631.3 360.2 631.6 360 631.6 359.4 L 631.6 326.4 C 631.6 325.9 631.4 325.6 630.8 325.6 Z " fill="rgb(109,121,110)"/></g></g></g></svg>