<?xml version="1.0" encoding="UTF-8" standalone="no"?><!-- Generator: Gravit.io --><svg xmlns="http://www.w3.org/2000/svg" xmlns:xlink="http://www.w3.org/1999/xlink" style="isolation:isolate" viewBox="0 0 258.316 456.3" width="258.316pt" height="456.3pt"><defs><clipPath id="_clipPath_qUkxxBk5lJ0odUUR0rISlQ2TzW2eOCiN"><rect width="258.316" height="456.3"/></clipPath></defs><g clip-path="url(#_clipPath_qUkxxBk5lJ0odUUR0rISlQ2TzW2eOCiN)"><g><g><g><path d=" M 0 352.5 L 11.7 352.5 C 20.9 352.5 28.7 357.1 28.7 366.2 C 28.7 375.9 20.4 380.3 11.1 380.3 L 6.3 380.3 L 6.3 397.3 L 0.1 397.3 L 0 352.5 Z  M 6.2 375.1 L 11.1 375 C 15.2 375 22.2 373.5 22.2 366.2 C 22.2 359.2 15.4 357.6 11.8 357.6 L 6.2 357.5 L 6.2 375.1 Z " fill="rgb(29,29,27)"/><path d=" M 33.4 374.3 C 33.4 371.5 33.3 368.8 33 366.2 L 38.6 366.2 L 38.9 374.3 L 39.3 374.3 C 40.4 370.3 43.8 365.7 48.4 365.7 C 50.1 365.7 51.4 366.1 52.4 366.6 L 52.4 371.9 C 51.5 371.5 50.2 371.1 48.9 371.1 C 43 371.1 39.7 376.9 39.3 383.5 L 39.3 397.3 L 33.4 397.3 L 33.4 374.3 Z " fill="rgb(29,29,27)"/><path d=" M 69.8 365.3 C 80.5 365.3 85.1 374.7 85.1 381.7 C 85.1 390 79.7 398.3 69.8 398.3 C 59.9 398.3 54.2 390.4 54.2 381.7 C 54.2 374.5 59 365.3 69.8 365.3 Z  M 69.7 393.9 C 74.5 393.9 79 390.1 79 381.6 C 79 373.7 74.7 369.7 69.7 369.7 C 65.7 369.7 60.3 372.3 60.3 381.7 C 60.3 388.1 63.2 393.9 69.7 393.9 Z " fill="rgb(29,29,27)"/><path d=" M 87.8 366.1 L 92.9 366.1 L 94 356.8 L 98.6 356.8 L 98.6 366.1 L 107.4 366.1 L 107.4 370.6 L 98.6 370.6 L 98.6 388.2 C 98.6 391 100 392.7 102.9 392.7 C 104.6 392.7 106.6 392.1 107.4 391.8 L 107.4 396.4 C 106.3 397.1 104.3 398 102.2 398 C 96.2 398 92.8 394.4 92.8 388.4 L 92.8 370.8 L 87.8 370.8 L 87.8 366.1 Z " fill="rgb(29,29,27)"/><path d=" M 126.1 365.3 C 136.8 365.3 141.4 374.7 141.4 381.7 C 141.4 390 136 398.3 126.1 398.3 C 116.2 398.3 110.5 390.4 110.5 381.7 C 110.5 374.5 115.4 365.3 126.1 365.3 Z  M 126 393.9 C 130.8 393.9 135.3 390.1 135.3 381.6 C 135.3 373.7 131 369.7 126 369.7 C 122 369.7 116.6 372.3 116.6 381.7 C 116.6 388.1 119.5 393.9 126 393.9 Z " fill="rgb(29,29,27)"/><path d=" M 144.2 366.1 L 149.3 366.1 L 150.4 356.8 L 155 356.8 L 155 366.1 L 163.8 366.1 L 163.8 370.6 L 155 370.6 L 155 388.2 C 155 391 156.4 392.7 159.3 392.7 C 161 392.7 163 392.1 163.8 391.8 L 163.8 396.4 C 162.7 397.1 160.7 398 158.6 398 C 152.6 398 149.2 394.4 149.2 388.4 L 149.2 370.8 L 144.2 370.8 L 144.2 366.1 Z " fill="rgb(29,29,27)"/><path d=" M 182.8 403.5 C 180.9 408.3 177.8 409.8 174 409.8 C 172.7 409.8 171 409.6 169.9 409.2 L 169.9 404.2 C 170.8 404.5 172.4 404.8 173.3 404.8 C 175.3 404.8 176.5 404.1 177.4 402.3 C 178 401 179 398.3 179.3 397.3 C 179.6 395.9 178.7 395.1 177.5 395.2 L 166.3 366.2 L 172.8 366.2 L 181.5 390.9 L 181.9 390.9 L 189.5 366.2 L 195.6 366.2 C 185 397.3 184.2 399.6 182.8 403.5 Z " fill="rgb(29,29,27)"/><path d=" M 205.3 409.2 L 199.5 409.2 L 199.5 370.7 C 199.5 369.4 199.4 367.3 199.4 366.1 L 204.9 366.1 C 205 367.3 205 369.6 205 370.8 L 205.4 370.8 C 207.5 367.6 210.5 365.6 214.6 365.6 C 223.2 365.6 227.9 373.2 227.9 381.9 C 227.9 390.9 223.1 398.2 214.9 398.2 C 209.3 398.2 206.6 394.5 205.7 393.2 L 205.3 393.2 C 205.3 393.2 205.4 395.4 205.4 397.4 L 205.3 409.2 Z  M 213.2 370.1 C 208.9 370.1 205.6 374.6 205.3 377.9 L 205.3 385.4 C 205.4 388.8 208.5 393.7 213.4 393.7 C 219.1 393.7 221.7 388.3 221.7 381.9 C 221.7 374.8 218.9 370.1 213.2 370.1 Z " fill="rgb(29,29,27)"/><path d=" M 236.1 382.5 C 236.2 389 239.3 393.7 245.2 393.7 C 249 393.7 251.9 391.2 252.6 387.7 L 258.3 387.7 C 257.6 392.8 253 398.2 244.8 398.2 C 236.1 398.2 230.2 391.6 230.2 381.4 C 230.2 372.7 235.7 365.3 244.4 365.3 C 255.8 365.3 259 375.2 258.2 382.5 L 236.1 382.5 L 236.1 382.5 Z  M 252.5 378.2 C 252.6 375.2 250.9 369.6 244.6 369.6 C 240.4 369.6 236.8 372.6 236.3 378.3 L 252.5 378.2 Z " fill="rgb(29,29,27)"/></g><g><path d=" M 0 411 L 25 411 L 25 416.3 L 6.4 416.3 L 6.4 431.1 L 24 431.1 L 24 436.3 L 6.4 436.3 L 6.4 455.8 L 0.1 455.8 L 0 411 Z " fill="rgb(29,29,27)"/><path d=" M 56.5 424.7 L 56.5 450.5 C 56.5 452.1 56.6 454.2 56.9 455.8 L 50.9 455.8 C 50.8 454.5 50.8 452.2 50.8 450.4 L 50.4 450.4 C 49.7 451.7 46.6 456.2 40.3 456.2 C 36.1 456.2 29.7 453.9 29.7 444.5 L 29.7 424.6 L 35.7 424.6 L 35.7 444.5 C 35.7 448.6 37.6 451.4 41.6 451.4 C 45.8 451.4 49.5 447.7 50.5 442.3 L 50.5 424.6 L 56.5 424.6 L 56.5 424.7 Z " fill="rgb(29,29,27)"/><path d=" M 62.3 430 C 62.3 428.4 62.2 426.5 62 424.7 L 68 424.7 L 68 430 L 68.4 430 C 69.2 428.6 72.6 424 78.5 424 C 82.2 424 88.8 426 88.8 435.5 L 88.8 455.8 L 82.8 455.8 L 82.8 435.4 C 82.8 431.1 80.9 428.6 77.3 428.6 C 73 428.6 69.4 432.6 68.2 437.7 L 68.2 455.8 L 62.3 455.8 L 62.3 430 Z " fill="rgb(29,29,27)"/><path d=" M 114.9 411 L 120.7 411 L 120.7 451.2 C 120.7 452.5 120.7 454.6 120.8 455.8 L 115.5 455.8 C 115.4 454.5 115.4 452.6 115.4 451.2 L 115 451.2 C 112.9 454.4 109.8 456.3 105.8 456.3 C 97.1 456.3 92.3 448.7 92.3 440 C 92.3 431 97.1 423.7 105.3 423.7 C 110.9 423.7 113.6 427.4 114.5 428.7 L 114.9 428.7 C 114.9 428.7 114.8 426.6 114.8 424.5 L 114.9 411 Z  M 107.1 451.9 C 111.4 451.9 114.7 447.4 114.9 444.2 L 114.9 436.6 C 114.8 433.2 111.7 428.3 106.8 428.3 C 101.1 428.3 98.5 433.7 98.5 440.1 C 98.6 447.2 101.4 451.9 107.1 451.9 Z " fill="rgb(29,29,27)"/></g></g><path d=" M 174.1 0.1 L 212.4 4.9 L 257.7 91.9 L 212.4 165 C 212.4 165 160.7 178.5 140.9 183.3 L 95.8 183.3 L 95.8 301.1 L 132.3 314 L 131.4 326.6 L 66.5 325.7 L 1.4 326.6 L 0 314 L 36.8 301.1 L 36.8 25.3 L 0 12.6 L 1.4 0 L 174.1 0.1 Z  M 95.8 158.2 L 133.5 165.4 L 191.7 124.8 L 209.7 91.9 L 191.7 58.8 L 133.5 20.4 L 95.8 25.4 L 95.8 158.2 Z " fill="rgb(0,154,206)"/></g></g></svg>