<svg version="1.1" id="Layer_1" xmlns="http://www.w3.org/2000/svg" x="0" y="0" viewBox="0 0 148.4 130.5" xml:space="preserve"><style>.st0{fill:#fff}</style><path class="st0" d="M116.4 103.5l-8.2 3.6c-2.9 1.3-6.4-.1-7.7-3-1.3-2.9.1-6.4 3-7.7.3-.1 8.2-3.6 8.2-3.6 2.9-1.3 6.4.1 7.7 3 1.3 3-.1 6.4-3 7.7zM117.1 81.1l-14.7 6.4c-2.9 1.3-6.4-.1-7.7-3-1.3-2.9.1-6.4 3-7.7l14.7-6.4c2.9-1.3 6.4.1 7.7 3 1.3 3-.1 6.5-3 7.7zM113.4 60.7l-16.9 7.4c-2.9 1.3-6.4-.1-7.7-3-1.3-2.9.1-6.4 3-7.7l16.9-7.4c2.9-1.3 6.4.1 7.7 3 1.2 3-.1 6.4-3 7.7z"/><path class="st0" d="M136.8 28.4L88.4 49.5c-7.3 3.2-10.6 11.7-7.5 19 1.3 3.1 3.7 5.5 6.4 6.9-2 3.8-2.4 8.4-.5 12.6 1.3 3.1 3.7 5.5 6.4 6.9-2 3.8-2.4 8.4-.5 12.6.8 1.9 2 3.5 3.5 4.8l-.3.1c-12 5.2-25.2 4.5-36.2-.7-.6-.5-1.3-.9-2-1-8.2-4.5-15.1-11.6-19.1-20.8-4.6-10.7-4.8-22.5-.6-33.3l19.1-43.9c1.2-3 4.6-4.5 7.5-3.3 4.3 1.7 4.5 6.1 4.3 8L62 63.1c-.4 2.3 1.3 4.5 3.6 4.9.8.1 1.6 0 2.4-.3 1.3-.6 2.3-1.8 2.5-3.3l3.2-21.3 58.5-25.4c2.9-1.3 6.4.1 7.6 3 1.3 3-.1 6.4-3 7.7z"/><path d="M127.9 9.7L74.4 33l2.2-14.5v-.2c.7-7.8-3-14.3-9.7-17-7.4-2.9-15.8.7-18.7 8l-19.1 44c-.3.8-.6 1.7-.9 2.6L3.6 66.6c-1.4.6-2.4 1.9-2.6 3.4s-4.3 37.8 26 59.7c1.2.9 2.8 1.1 4.2.5l24.3-10.6c13.1 6.1 28.6 6.8 42.8.6l20.6-9c7.3-3.2 10.7-11.7 7.5-19-.9-2.1-2.2-3.8-3.8-5.2 5.1-3.9 7.2-11 4.5-17.2-1.2-2.7-3-4.8-5.3-6.3 2.9-4 3.7-9.4 1.6-14.2-.8-1.9-2-3.5-3.5-4.8l19.4-8.4c7.3-3.2 10.6-11.7 7.5-19-3.1-7.2-11.6-10.6-18.9-7.4zM46.4 114.2l-16.3 7.1C9.7 105.1 9 81.1 9.4 73.5l16.5-7.2c-1.1 9.1.2 18.3 3.9 26.9s9.6 15.7 16.6 21zm69.2-10.8l-8.2 3.6c-2.9 1.3-6.4-.1-7.7-3-1.3-2.9.1-6.4 3-7.7.3-.1 8.2-3.6 8.2-3.6 2.9-1.3 6.4.1 7.7 3 1.3 3-.1 6.4-3 7.7zm.6-22.4l-14.7 6.4c-2.9 1.3-6.4-.1-7.7-3-1.3-2.9.1-6.4 3-7.7l14.8-6.4c2.9-1.3 6.4.1 7.7 3 1.2 3-.1 6.4-3.1 7.7zm-3.7-20.5l-16.9 7.4c-2.9 1.3-6.4-.1-7.7-3-1.3-2.9.1-6.4 3-7.7l16.9-7.4c2.9-1.3 6.4.1 7.7 3 1.3 3 0 6.5-3 7.7zM136 28.3l-48.5 21c-7.3 3.2-10.6 11.7-7.5 19 1.3 3.1 3.7 5.5 6.4 6.9-2 3.8-2.4 8.4-.5 12.6 1.3 3.1 3.7 5.5 6.4 6.9-2 3.8-2.4 8.4-.5 12.6.8 1.9 2 3.5 3.5 4.8l-.3.1c-12 5.2-25.2 4.5-36.2-.7-.6-.5-1.3-.9-2-1-8.2-4.5-15.1-11.6-19.1-20.8-4.6-10.7-4.8-22.5-.6-33.3l19.1-43.9c1.2-3 4.6-4.5 7.5-3.3 4.3 1.7 4.5 6.1 4.3 8l-6.9 45.7c-.4 2.3 1.3 4.5 3.6 4.9.8.1 1.6 0 2.4-.3 1.3-.6 2.3-1.8 2.5-3.3l3.2-21.3 58.5-25.4c2.9-1.3 6.4.1 7.6 3 1.4 3.1 0 6.5-2.9 7.8z"/><path d="M46.4 114.2l-16.3 7.1C9.7 105.1 9 81.1 9.4 73.5l16.5-7.2c-1.1 9.1.2 18.3 3.9 26.9s9.6 15.7 16.6 21z" fill="#ffdb4c"/></svg>