<?xml version="1.0" encoding="UTF-8" standalone="no"?>
<svg xmlns="http://www.w3.org/2000/svg" width="392" height="477" viewBox="0 0 392 477">
 <g fill-rule="evenodd">
  <path d="m6.04 6h380v275c0 110-85 190-190 190-105 0-190-80-190-190v-275" fill="#fcdd09"/>
  <path d="m6.04 296h380c-6.97 49.949-19.267 96.84-79 138h-223c-38.767-32.492-73-68-78-138" fill="#da121a"/>
  <g stroke="#000" stroke-linejoin="round" stroke-width="2">
   <path d="m136.69 6.171c-8.126 31.831 1.629 62.38 30.511 73.65 9.101-9.243 17.885-19.663 30.422-21.266 7.431-.95 18.531-2.102 23.68 1.703 6.55 4.841 10.03 11.606 12.138 9.752 18.394-15.02 21.948-43.18 15.454-63.47z" fill="#fff" stroke-linecap="round"/>
   <path d="m169.94 70.08c-1.621 5.924 10.489 25.07 16.534 37.526-5.779 12.12 2.68 19.46 11.889 23.04 3.839-1.643 6.192-1.939 10.03.372 12.632-5.781 18.643-16.02 15.79-29.537-.676-3.205-3.361-6.447-5.573-5.945 1.394-10.555-2.896-19.829-5.387-29.537-1.399-5.451-5.572-8.285-11.518-7.431-11.846 1.702-28.566-.18-31.767 11.518z" fill="#f2a772"/>
   <g stroke-linecap="round">
    <path d="m57.04 233v-12c-8.01.824-15.11 1.526-3.581 5.495-8.602-4.091-18.481 3.655-7.245 5.759 5.475 1.025 7.598.855 10.826.747z" fill="#da121a"/>
    <g fill="#0f47af">
     <path d="m106.96 266.25c-.089 10.683.411 21.759-3.715 29.751h49.41c12.04-37.467 25.703-74.38 27.12-108.2l-67.992 49.47z"/>
     <path d="m108.61 218.38c-1.169-11.732 4.788-23.584 10.615-37.961 3.771-9.304 7.1-14.566 12.425-20.329 4.148-4.49 1.946-7.976 10.239-15.71 4.471-4.169 9.902-5.244 14.29-9.495 6.21-6.02 7.142-14.852 19.52-17.999 1.463-4.671 3.056-10.451 9.287-12.26l1.487 2.972c-5.22 12.557 1.535 19.78 11.889 23.04 3.096-1.61 6.548-1.678 10.03.372 12.587-5.83 18.553-15.29 15.79-29.537 7.928 1.221 13.781 10.403 18.391 18.763 3.901 7.07 8.829-.065 13.933 2.601 8.343 6.328 12.13-1.284 14.998 3.225 3.113 4.894 8.856 6.52 14.911 10.894 9.02 6.511 15.755 9.693 24.336 13.747 12.339 5.829 16.449 14.327 15.233 27.494-3.56 38.554 4.418 79.16 6.13 117.81h-35.668c-47.22-38.33-81.77-86.08-94.37-150.13"/>
    </g>
    <path d="m75.04 220c-3 15 5.149 30.25 10.743 44.763 2.954 7.665 11.206 6.748 18.205 3.344 5.874-2.856 5.01-14.484 7.06-22.292 6.874-1.898 14.635-9.421 22.466-10.477 11.563-1.559 25.479-22.901 35.866-39.681 9.982.437 6.582 9.389 6.316 16.348-13.279 31.613-17.287 57.09-23.04 83.996h143.79c-5.844-16.307-13.5-22.842-28.98-31.608-16.348-16.383-30.838-44.2-44.585-69.48-6.187-15.288-14.509-29.723-15.233-46.814-.32-7.539-10.154-8.208-14.862-2.972-9.36 10.409-14.392 17.738-27.866 21.921-10.432 3.239-24.462.494-29.723 5.202-11.785 10.544-9.493 27.392-18.206 38.27-8.456 10.556-14.432 10.169-21.18 13.375-6.688-2.345-14.09-6.17-20.774-3.894" fill="#da121a"/>
   </g>
  </g>
  <g fill="#fff">
   <path d="m177.46 201.17c15.756-3.569 29.681-4.64 45.908-3.495l4.727 9.275c-18.15.453-34.64-2.601-51.49 4.378z"/>
   <path d="m220.2 230.41l-8.05-13.38c8.691-2.688 12.186 2.342 15.11 8.281" stroke="#000" stroke-linejoin="round" stroke-linecap="round" stroke-width="2"/>
  </g>
  <g stroke="#000" stroke-linejoin="round" stroke-linecap="round" stroke-width="2">
   <g fill="#da121a">
    <path d="m265.31 273.72l16.03-46.5 8.67 2.89-15.08 46.02"/>
    <path d="m281.67 281.81l42.761-21.757 3.415 8.932-42.791 19.17"/>
   </g>
   <g fill="#fff">
    <path d="m331.26 257.69l14.187-7.093c2.538 9.679-2.877 12.828-8.932 15.5"/>
    <path d="m282.89 220.21l4.384-15.243c8.842 4.685 7.493 10.802 5.361 17.07"/>
   </g>
   <path d="m241.15 221.17c17.287-6.992 42.36-5.24 61.739 5.78 26.795 15.238 39.59 44.27 39.41 69.05h-11.822c.787-21.377-9.314-42.691-27.06-55.913-13.399-9.983-36.445-16.343-58.32-8.67" fill="#da121a"/>
   <path d="m259.41 216.44c13.356-.127 2.155-12.633-7.356-12.742-4.447-.051-8.684 1.719-12.191 2.6-6.073 1.527-10.742 3.28-16.183 9.09-3.885 4.149-6.421 5.644-9.06 7.619-6.098 4.558 1.727 5.108 3.678 3.284 6.688-6.252 13.486-11.127 21.02-14.318-7.285 6.234-7.326 14.633-4.072 22.462 1.913 4.603 5.152 5.517 3.809-1.051-1.356-6.635-.829-11.967 3.941-16.683-4.441 6.632-3.628 13.07-1.839 19.18.672 2.293 3.948 4.882 3.153-2.627-.939-8.863 1.855-12.568 6.04-18.13-1.472 5.465-1.47 10.192.525 13.924 2.409 4.505 3.804 1.352 2.89-.92-2.913-7.238 3.351-11.669 5.648-11.691z" fill="#fb9"/>
   <path d="m65.65 20.87c2.679 5.659 6.414 57.892 6.831 89.95l1.576 121.18c5.534.778 10.722-.139 15.763-2.319 5.243-2.268 7.764 5.171-.435 7.478-5.01 1.41-10.193 3.529-16.193 1.917 1.825 25.23 7.14 24.992-1.085 27.692 2.789 2.692 3.374 5.972-1.24 10.638 7.946 3.775 2.094 10.374-3.115 10.753-5.209.379-9.89-5.98-4.729-9.458-1.76-3.962-3.593-7.953-.525-9.983-2.359-2.862-3.609-5.816-.079-9.168l-4.343-19.03c-8.681-.441-15.943-1.01-21.665-2.858-2.407-.779-5.51-8.04.464-7.173 7.245 1.054 14.632 2.934 20.16 2.512l1.256-122.43c.328-31.981 5.213-84.3 7.356-89.7z" fill="#fff"/>
   <g fill="#fb9">
    <path d="m67.58 245.26c-4.237 1.716.14 6.124 1.486 9.289 1.962 4.611 6.422 6.541 12.261 6.502 5-.033 9.671-1.809 10.589-9.66.23-1.97-1-3.638-.813-4.883.785-5.232-2.029-6-3.924-4.777-1.422.917-5.109-.867-11.165-2.138-5.727-1.202-13.51-1.624-18.837-1.763 1.119 3.71 3.959 5.207 8.545 4.458.215 1.048.002 2.158 1.858 2.972z"/>
    <path d="m46.588 239.22c-2.242-.631-3.049 6.158 1.858 7.152-3.951.644-5.01 6.319 1.115 6.502-3.156 1.331-2.355 7.207 4.458 7.709 4.01.295 6.655-.407 7.802-.836 5.684-2.125 3.489-5.557-1.579-6.688 4.63.172 2.421-6.827-3.994-6.688 5.059-.153 4.24-5.711-2.787-6.223-2.291-.167-4.582-.284-6.874-.929z"/>
   </g>
   <g fill="none">
    <path d="m48.45 246.37c3 .668 5.543.569 7.802 0"/>
    <path d="m49.56 252.87c3.873.687 7.296.473 10.682.186"/>
    <path d="m67.58 245.26c8.545-1.861 11.15 12.196 18.67 5.02"/>
   </g>
   <path d="m189.03 277.71l-13.783-3.567c4.462-8.957 10.257-7.762 16.574-5.788" fill="#fff"/>
   <path d="m169.94 70.08c8.503-13.526 35.21-12.136 52.35-10.576.275-5.5 3.862-10.25 6.25-15.75 7.05 5.488 12.652-4.849 5.5-8 11.639-4.957-7.302-15.552-5.25-2-5.546-5.914-14.629 2.945-4.5 7.5-6.417 4.417-10.667 2.5-12.75-5.75-2.701 5.186-12.576 11.12-14 .75-.532-3.872 3.162-6.702 8.25-5.125 1.641-7.406-4.637-8.174-9.75-5.875 6.954-7.787-13.298-9.594-8.5.125-9.313-2.25-8.529 5.144-7.75 9.625 5.565-3.931 9.459.437 9.5 3.25.081 5.481-9.907 9.606-14.25 3.25-1.051 5.524-3.447 10.445-10.375 6.5 7.672-2.364 4.359-13.879-2.875-9.5 2.205-12.35-17.8-4.579-6.625 2.625-11.325 2.102-1.681 13.788 3.25 8.75 2.458-1.109 8.189 14.627 11.522 20.2z" fill="#fcdd09"/>
  </g>
 </g>
 <g stroke="#000" stroke-linejoin="round" stroke-linecap="round">
  <path d="m58.04 296v46h46v-46zm46 46v45.998l46 .002v-46zm46 0h46v-46h-46zm46 0v46h46v-46zm46 0h46v46h46v26c10.665-9.322 11.04-14.624 20-26 9.745-15.06 18.18-30.468 23-46-6.713 20-13.766 32.374-23 46h-20v-46h44l6-46h-50v46h-46v-46h-46zm0 46v46h46v-46zm-46 0h-46v46h46zm-92-.002l-46 .002v26l24.886 20h21.11zm-46 .002v-46h-43c6 14 15.197 32.25 23 46z" fill="#fff" stroke-width="2" stroke-miterlimit="10"/>
  <g fill="none" fill-rule="evenodd">
   <path d="m6.04 6h380v275c0 110-85 190-190 190-105 0-190-80-190-190v-275" stroke-width="6"/>
   <path d="m82.929 434h227.11m-303.47-138l97.47.006m38.5-129.76c-3.195 1.932-7.826 4.01-9.342 7.25m46.856-78.14c-11.745 6.924-6.01 17.08-10.139 18.892-6.976 3.07-13.373 6.189-14.875 14.375m3-14.12c-1.772-6.41 8.515-4.536 8-11.75-.406-5.682 1.614-11.1 9.577-15.794m-19.702 17.04c7.754-5.494 5.02-9.24 5.375-13.5m-15.75 44.38c8.544-2.612 9.241-9.434 4.125-19.375m-7.779 28.884c4.464-6.183 5.176-11.364-.346-14.884 4.234-4.632 11.286-16.15 7.375-19.5m22.259-33.01c-6.934 3.29-9.01 11.294-12.134 17.76-11.886 2.881-9.826 9.71-10.125 15.13-11.928 5.246-10.48 16.83-7.375 19.75-13.188 8.375-2.966 14.771-9.894 30.469m47.894-106.22c2.727 1.439.856 4.811-2.5 4.875m17.75-9.5c3.997 2.968-.053 7.111-2.75 5.25m18.15-4.457c2.667 1.744.366 5.951-2.396 3.957m-42.5 0c4.25 2.616 9.625.718 11.625-5.25 4.833 5.268 12.167 1.269 15.625-4.5 4.498 4.829 11.92 5.333 17.5 0 2.36 5.245 8.415 6.34 12.75 3m21.25 66.5c2.914-14.792-10.54-8.213-20.25-13.5m25.375 17.12c-2 1.203-5.125 2.575-7.125 1.125m9.75 1c-.409 2.851-3.672 3.248-4.998 3.96m6.248-13.335c5.539 5.898-1.153 6.58 3.25 12.12m-8.5-21c1.799 3.587 7.207 2.045 10.913 4.224 2.924 1.72 4.741 6.558 3.212 12.526m-25.39-50.768c1.548 4.598 4.222 7.672 7.858 8.358 3.663.692 10.523 4.671 6.907 9.66 2.25 5.333 9.226 12.285 7.763 18.737 4.95.136 15.07 3.106 10.487 13.388 2.182-1.149 9.764 1.898 4.75 6.375 12.66-1.508 10.314 7.273 12.12 13.203m-68.46-53.987c6.574 2.034 10.407 17.09 19.4 14.05 10.297-3.481 14 2.426 21.725 4.096-10.784-20.524-25.355-4.289-31.786-16.11m1.75-6.25c7.32 9.75 15.454-1.856 24.682 11.877m-27.791-26.27c3.01 6.081 5.683 12.783 11.876 12.95m-18.518-13.06c4.643 4.978 4.684 10.429 9.927 14.677-6.665 1.084-12.159-3.18-15.995-12.938m-36.18 14.761c2.314-1.432 3.076-3.02 5-2.5 2.53 1.122-.467 1.952-2.5 2.125m27.75-5.375c-2.833-2.01-5.667-1.455-8.5-.5 1.625 2.289 3.875.547 5.625.625m-7.875-5.125c2.905-2.01 6.768-1.388 11 .25m-32.25 5.5c2.41-4.02 8.142-4.213 12 .5 3.657 4.468 1.524 9.292 1.5 16 2.148 2.309 14.04.839 9-6m6 8.75c-1.583 1.49-3.167 3.73-4.75.75-1.439 3.093-4.124 2.031-6.5 2-.882 1.228-1.586 2.765-3.75 1.75m5.125 3c2.053.509 4.358.963 5.75-1.5m14.625 14.875c1.792-1.361 3.583-2.287 5.375-5.875m-5.375-.875c1.745-.324 3.065-3.627 4.5-6.125m-24.75 16.5c-5.191-2.47-7.136-6.907-7-12.25 4.9 3.443 14.375 11.283 19.296 2.903 2.285-3.891 8.809-6.954 12.413-15.886m-20.389 36.37c-2.381 4.662.55 10.914 4.309 11.344 5.624.644 9.93-7.42 5.723-10.973m-70.976 29.24c8.61-15.524 24.46-12.11 35.875-18.75m2.406-24.61c.968 14.705 9.671 16.295 18.09 18.36-5.538 7.604-12.196 9.405-18.375 14-17.278 12.849-30.882 7.532-46.01 13.386m95.64-41.14c4.451-2.38 5.363-7.119 5.875-12.12m-15.375 23c8.423-.411 14.701-4.756 19.12-12.5m-20.625 15.375c4.793 2.93 10.222 3.771 14.93 1.985 3.902-1.48 7.113-5.43 10.82-5.485m-18.5 14.75c14.295 18.704 34.672 27.819 40.25 47m-24-44.5l12.75 10.75m14-20.12c2.02-2.459 4.413-1.536 6.75-1.125m-.25 6c3.948-1.215 7.926-2.507 10.25.5m-5 7c4.336-4.54 9.855-2.532 13-1.125m-20.75 39.37c.505-6.208-1.073-12.773 2.25-18.625 3.76-6.622 9.477-7.01 14.25-7.25 15.566-.795 23.718-9.211-.875-7.375m14.875 21c-9.159-5.487-16.462-1.284-22.625 8.875m-34.5-19.875c1.772 11.858 11.09 15.914 9.875 29.5m-19.5-21.75c5.082 7.833 11.996 15.667 15 23.5m-31.25-37.5c7.176 15.522 12.289 31.87 24.07 45.551m32.93 2.074c1.446 3.075 2.547 6.746-.836 8.934m7.586-10.809c.713 3.835 1.904 7.565-.257 12.04m20.507-17.789c2.886 6.972 4.512 14.545.466 24.818m-57.38-20.13c1.462-7.852 10.153-9.127 18.544-11.939 6.391-2.142 11.629-5.972 22-10.625 7.895-3.542 16.647 1.749 20.5 9.25 6.285 12.237.86 25.766 7.103 39.961m-1.978-61.09c9.742 9.576 8.08 24.614 8 39-.093 17.48 3.58 23.488 6.07 32.97m-23.804 38.805c1.663 4.742 5.73 8.454 4.989 14.226m-24.26-35.414c6.177 4.784 9.908 9.918 13.828 15.02m23.08-1.735c.154 9.15 4.693 9.872 2.858 22.12m-7.711-48.05c-.077 7.27.93 11.726 2.489 17.13m-7.528-11.822c.963 2.833 1.663 5.667 0 8.5m-7-15.12c1.15 5.165 2.37 10.311 1.25 16.12m-9.75-20.75c3.678 5.04 3.042 11.41 2.5 17.75m-22.75-31.5c1.196 5.085.67 8.104.25 11.25m-9.5-11.25c1.877 2.324 3.772 4.533 5 10.75m-13.502-7.846c8.787 6.103 6.06 15.799 18.276 23.699m22.23-52.853c3.02 5.646 5.669 11.512 1.498 21.408m-135.92-12.625c1.72 4.449 1.983 10.987 2.01 16.896m-7.077-9.862c1.793 6.496 1.213 14.772 1.244 22.59m-7.643-14.888c3.117 23.268 2.907 47.15 4.508 70.826m-10.744-65.02c1.769 16.533 4.634 37.24.975 55.927m-12.412-51.21c2.635 16.478.573 35.707-.492 54.03m-6.665-50.644c2.549 20.03-.827 38.17-3.235 55.947m124.11.737c.856-29.836 40.74-29.871 42.34-.121m-30.8 0c-1.217-16.1 19.851-15.7 19.55 0m-16.895-21.18l-25.644-38.477m18.95 42.3l-24.944-38.833m-25.462 40.907l43.28 11.38m-40.42-19.642l42.626 12.599m-46.49 10.942c-1.082-11.87 2.264-22.579 8.104-34.09 3.969-7.823 13.681-20.967 26.844-27.471m-47.947 61.56c.475-14.732 4.93-29.968 14.268-45.15 7.407-12.04 17.692-20.868 31.96-29.41m.522 39.06c.887 4.083 1.441 8.167 0 12.25m-7.75-19.13c-.562 8.331-.373 14.541 0 19.13m-10-13.75c-.942 2.229-1.5 5.416-1.5 10m-19.75-31.5c1.31-7.742 3.681-17.817 7.348-30.743m-28.1 89.54c2.386-27.925 9.304-57.61 20.17-88.84m-28.924 69.04c3.085-22.709 10.55-45.05 19.249-67.29m-9.09 2.798c17.907-6.782 35.813-5.552 53.72-5.05m-53.06-5.78c15.814-2.987 31.7-5.257 47.981-3.584m-92.79-1.59c-3.147-4.678-2.837-9.355-3.321-14.03-1.038 13.403-4.849 23.38-7.77 31.606m14.841-27.573c-.183-6.05-2.177-12.38 8.939-16.617m42.31-6.633c-.998-5.298 1.677-10.07 3.843-14.918m24.504 37.08c-.864 5.79-.668 9.659 1.294 12.151m-9.274-31.03c-.921 10.146.181 21.816 3.02 31.02m-7.85-51.19c-4.499 18.09-3.346 35.19 2.997 51.39m-14.282-17.01c-1.261 7.361 5.654 15.513 6.399 17.684m-16.899-14.184c1.946 5.341 7.262 9.139 11.651 14.831m-20.901-13.581c2.968 10.575 11.859 6.944 12.901 14.81m-27.401.94c4.718-7.232 4.066-17.534 2.25-28.5 2.207 9.726 3.434 20.878 10.59 23.407-1.685 7.925-.597 10.303-.59 14.843m-17.25-15.5c1.886 8.284-2.87 15.965-5.811 23.811m-3.689-14.561c-.179 5.927-1.303 11.854-4.768 17.78m-3.232-7.53c.477 4.439-2.73 8.877-5.415 13.316m-17.324 7.955c2.893 15.667 6.559 4.688 5.791-2.101m-25.943 21.18c3.146 5.982 2.434 10.421-3.841 12.635m17.481-16.985c4.376 10.804-1.719 16.238-9.631 20.12 6.17-8.645 7-15.803.881-21.872m2.25-12c2.577 1.231 5.371 2.277 4.75 6.25m-7.226-19.11c6.644 4.925 13.768 11.363 15.233 21.921m-45.921-126.84l.788 104.56m-8.875 9.465c6.329-.021 13.359.425 17.727-.903m-9.679 25.15l3.975-2.7m-6.564 14.177c4.885 2.198 9.65 4.435 8.37 8.688-3.189-.287-6.05-.158-7.844 1.295m.739-19.924c2.782 3.233 5.563 6.775 8.345 7.991" stroke-width="2"/>
  </g>
 </g>
</svg>
