<?xml version="1.0" encoding="utf-8"?>
<!-- Generator: Adobe Illustrator 20.1.0, SVG Export Plug-In . SVG Version: 6.00 Build 0)  -->
<svg version="1.1" id="Layer_1" xmlns="http://www.w3.org/2000/svg" xmlns:xlink="http://www.w3.org/1999/xlink" x="0px" y="0px"
	 viewBox="0 0 470 398.8" style="enable-background:new 0 0 470 398.8;" xml:space="preserve">
<style type="text/css">
	.st0{fill:#A4CFDA;}
	.st1{fill:#CCDBDD;}
	.st2{fill:#44707F;}
	.st3{fill:#FFFFFF;}
	.st4{fill:#98D4E2;}
	.st5{fill:#98D4E1;}
	.st6{fill:#8EC4D0;}
	.st7{fill:#E1EBEC;}
	.st8{fill:#D9EAED;}
	.st9{fill:#6BACBE;}
	.st10{fill:#9BCBD3;}
</style>
<g>
	<rect x="48" y="289.5" class="st0" width="164.1" height="110.8"/>
</g>
<g>
	<rect x="90.3" y="261.5" class="st0" width="177.3" height="137"/>
</g>
<g>
	<rect x="261.9" y="261" class="st0" width="177.3" height="137"/>
</g>
<g>
	<rect x="211.1" y="241.4" class="st0" width="162.2" height="137"/>
</g>
<g>
	<rect x="135" y="198.1" class="st0" width="61.9" height="200.2"/>
</g>
<g>
	<rect x="374.2" y="285.4" class="st0" width="83.8" height="112.8"/>
</g>
<g>
	<polygon class="st0" points="165.9,179.7 191.9,214.1 139.9,214.1 	"/>
</g>
<g>
	<polygon class="st0" points="373.3,243.8 399.3,278.1 347.3,278.1 	"/>
</g>
<g>
	<g>
		<rect x="339.6" y="88.5" class="st0" width="18.4" height="102.4"/>
	</g>
	<g>
		<circle class="st0" cx="348.3" cy="138.7" r="26.9"/>
	</g>
	<g>
		<rect x="334.7" y="168" class="st0" width="27.9" height="16.9"/>
	</g>
	<g>
		<rect x="347.8" y="6" class="st0" width="2.7" height="132.2"/>
	</g>
	<g>
		<polygon class="st0" points="358.4,398.5 338.5,398.5 343.3,177.3 353.6,177.3 		"/>
	</g>
</g>
<g>
	<g>
		<rect x="269.4" y="264.6" class="st1" width="144.4" height="135.3"/>
		<path class="st2" d="M414.3,400.4H268.9V264.1h145.4V400.4z M269.9,399.4h143.4V265.1H269.9V399.4z"/>
	</g>
	<g>
		<g>
			<g>
				<rect x="277.4" y="348.1" class="st3" width="4.6" height="8.8"/>
				<path class="st2" d="M282.5,357.5h-5.6v-9.8h5.6V357.5z M277.9,356.5h3.6v-7.8h-3.6V356.5z"/>
			</g>
			<g>
				<rect x="277.1" y="357.4" class="st4" width="5.2" height="1.3"/>
			</g>
		</g>
		<g>
			<g>
				<rect x="291.5" y="348.1" class="st3" width="4.6" height="8.8"/>
				<path class="st2" d="M296.6,357.5H291v-9.8h5.6V357.5z M292,356.5h3.6v-7.8H292V356.5z"/>
			</g>
			<g>
				<rect x="291.2" y="357.4" class="st4" width="5.2" height="1.3"/>
			</g>
		</g>
		<g>
			<g>
				<rect x="305.6" y="348.1" class="st3" width="4.6" height="8.8"/>
				<path class="st2" d="M310.7,357.5h-5.6v-9.8h5.6V357.5z M306.1,356.5h3.6v-7.8h-3.6V356.5z"/>
			</g>
			<g>
				<rect x="305.3" y="357.4" class="st4" width="5.2" height="1.3"/>
			</g>
		</g>
		<g>
			<g>
				<rect x="277.4" y="329.6" class="st3" width="4.6" height="8.8"/>
				<path class="st2" d="M282.5,338.9h-5.6v-9.8h5.6V338.9z M277.9,337.9h3.6v-7.8h-3.6V337.9z"/>
			</g>
			<g>
				<rect x="277.1" y="338.9" class="st4" width="5.2" height="1.3"/>
			</g>
		</g>
		<g>
			<g>
				<rect x="291.5" y="329.6" class="st3" width="4.6" height="8.8"/>
				<path class="st2" d="M296.6,338.9H291v-9.8h5.6V338.9z M292,337.9h3.6v-7.8H292V337.9z"/>
			</g>
			<g>
				<rect x="291.2" y="338.9" class="st4" width="5.2" height="1.3"/>
			</g>
		</g>
		<g>
			<g>
				<rect x="305.6" y="329.6" class="st3" width="4.6" height="8.8"/>
				<path class="st2" d="M310.7,338.9h-5.6v-9.8h5.6V338.9z M306.1,337.9h3.6v-7.8h-3.6V337.9z"/>
			</g>
			<g>
				<rect x="305.3" y="338.9" class="st4" width="5.2" height="1.3"/>
			</g>
		</g>
		<g>
			<g>
				<rect x="277.4" y="366.7" class="st3" width="4.6" height="8.8"/>
				<path class="st2" d="M282.5,376h-5.6v-9.8h5.6V376z M277.9,375h3.6v-7.8h-3.6V375z"/>
			</g>
			<g>
				<rect x="277.1" y="376" class="st4" width="5.2" height="1.3"/>
			</g>
		</g>
		<g>
			<g>
				<rect x="291.5" y="366.7" class="st3" width="4.6" height="8.8"/>
				<path class="st2" d="M296.6,376H291v-9.8h5.6V376z M292,375h3.6v-7.8H292V375z"/>
			</g>
			<g>
				<rect x="291.2" y="376" class="st4" width="5.2" height="1.3"/>
			</g>
		</g>
		<g>
			<g>
				<rect x="305.6" y="366.7" class="st3" width="4.6" height="8.8"/>
				<path class="st2" d="M310.7,376h-5.6v-9.8h5.6V376z M306.1,375h3.6v-7.8h-3.6V375z"/>
			</g>
			<g>
				<rect x="305.3" y="376" class="st4" width="5.2" height="1.3"/>
			</g>
		</g>
		<g>
			<g>
				<rect x="277.4" y="292.3" class="st3" width="4.6" height="8.8"/>
				<path class="st2" d="M282.5,301.7h-5.6v-9.8h5.6V301.7z M277.9,300.7h3.6v-7.8h-3.6V300.7z"/>
			</g>
			<g>
				<rect x="277.1" y="301.6" class="st4" width="5.2" height="1.3"/>
			</g>
		</g>
		<g>
			<g>
				<rect x="291.5" y="292.3" class="st3" width="4.6" height="8.8"/>
				<path class="st2" d="M296.6,301.7H291v-9.8h5.6V301.7z M292,300.7h3.6v-7.8H292V300.7z"/>
			</g>
			<g>
				<rect x="291.2" y="301.6" class="st4" width="5.2" height="1.3"/>
			</g>
		</g>
		<g>
			<g>
				<rect x="305.6" y="292.3" class="st3" width="4.6" height="8.8"/>
				<path class="st2" d="M310.7,301.7h-5.6v-9.8h5.6V301.7z M306.1,300.7h3.6v-7.8h-3.6V300.7z"/>
			</g>
			<g>
				<rect x="305.3" y="301.6" class="st4" width="5.2" height="1.3"/>
			</g>
		</g>
		<g>
			<g>
				<rect x="277.4" y="273.8" class="st3" width="4.6" height="8.8"/>
				<path class="st2" d="M282.5,283.1h-5.6v-9.8h5.6V283.1z M277.9,282.1h3.6v-7.8h-3.6V282.1z"/>
			</g>
			<g>
				<rect x="277.1" y="283.1" class="st4" width="5.2" height="1.3"/>
			</g>
		</g>
		<g>
			<g>
				<rect x="291.5" y="273.8" class="st3" width="4.6" height="8.8"/>
				<path class="st2" d="M296.6,283.1H291v-9.8h5.6V283.1z M292,282.1h3.6v-7.8H292V282.1z"/>
			</g>
			<g>
				<rect x="291.2" y="283.1" class="st4" width="5.2" height="1.3"/>
			</g>
		</g>
		<g>
			<g>
				<rect x="305.6" y="273.8" class="st3" width="4.6" height="8.8"/>
				<path class="st2" d="M310.7,283.1h-5.6v-9.8h5.6V283.1z M306.1,282.1h3.6v-7.8h-3.6V282.1z"/>
			</g>
			<g>
				<rect x="305.3" y="283.1" class="st4" width="5.2" height="1.3"/>
			</g>
		</g>
		<g>
			<g>
				<rect x="277.4" y="310.9" class="st3" width="4.6" height="8.8"/>
				<path class="st2" d="M282.5,320.2h-5.6v-9.8h5.6V320.2z M277.9,319.2h3.6v-7.8h-3.6V319.2z"/>
			</g>
			<g>
				<rect x="277.1" y="320.2" class="st4" width="5.2" height="1.3"/>
			</g>
		</g>
		<g>
			<g>
				<rect x="291.5" y="310.9" class="st3" width="4.6" height="8.8"/>
				<path class="st2" d="M296.6,320.2H291v-9.8h5.6V320.2z M292,319.2h3.6v-7.8H292V319.2z"/>
			</g>
			<g>
				<rect x="291.2" y="320.2" class="st4" width="5.2" height="1.3"/>
			</g>
		</g>
		<g>
			<g>
				<rect x="305.6" y="310.9" class="st3" width="4.6" height="8.8"/>
				<path class="st2" d="M310.7,320.2h-5.6v-9.8h5.6V320.2z M306.1,319.2h3.6v-7.8h-3.6V319.2z"/>
			</g>
			<g>
				<rect x="305.3" y="320.2" class="st4" width="5.2" height="1.3"/>
			</g>
		</g>
		<g>
			<g>
				<rect x="319.4" y="348.2" class="st3" width="4.6" height="8.8"/>
				<path class="st2" d="M324.5,357.5h-5.6v-9.8h5.6V357.5z M319.9,356.5h3.6v-7.8h-3.6V356.5z"/>
			</g>
			<g>
				<rect x="319" y="357.5" class="st4" width="5.2" height="1.3"/>
			</g>
		</g>
		<g>
			<g>
				<rect x="333.5" y="348.2" class="st3" width="4.6" height="8.8"/>
				<path class="st2" d="M338.6,357.5H333v-9.8h5.6V357.5z M334,356.5h3.6v-7.8H334V356.5z"/>
			</g>
			<g>
				<rect x="333.2" y="357.5" class="st4" width="5.2" height="1.3"/>
			</g>
		</g>
		<g>
			<g>
				<rect x="319.4" y="329.6" class="st3" width="4.6" height="8.8"/>
				<path class="st2" d="M324.5,338.9h-5.6v-9.8h5.6V338.9z M319.9,337.9h3.6v-7.8h-3.6V337.9z"/>
			</g>
			<g>
				<rect x="319" y="338.9" class="st4" width="5.2" height="1.3"/>
			</g>
		</g>
		<g>
			<g>
				<rect x="333.5" y="329.6" class="st3" width="4.6" height="8.8"/>
				<path class="st2" d="M338.6,338.9H333v-9.8h5.6V338.9z M334,337.9h3.6v-7.8H334V337.9z"/>
			</g>
			<g>
				<rect x="333.2" y="338.9" class="st4" width="5.2" height="1.3"/>
			</g>
		</g>
		<g>
			<g>
				<rect x="319.4" y="366.7" class="st3" width="4.6" height="8.8"/>
				<path class="st2" d="M324.5,376h-5.6v-9.8h5.6V376z M319.9,375h3.6v-7.8h-3.6V375z"/>
			</g>
			<g>
				<rect x="319" y="376" class="st4" width="5.2" height="1.3"/>
			</g>
		</g>
		<g>
			<g>
				<rect x="333.5" y="366.7" class="st3" width="4.6" height="8.8"/>
				<path class="st2" d="M338.6,376H333v-9.8h5.6V376z M334,375h3.6v-7.8H334V375z"/>
			</g>
			<g>
				<rect x="333.2" y="376" class="st4" width="5.2" height="1.3"/>
			</g>
		</g>
		<g>
			<g>
				<rect x="319.4" y="292.4" class="st3" width="4.6" height="8.8"/>
				<path class="st2" d="M324.5,301.7h-5.6v-9.8h5.6V301.7z M319.9,300.7h3.6v-7.8h-3.6V300.7z"/>
			</g>
			<g>
				<rect x="319" y="301.7" class="st4" width="5.2" height="1.3"/>
			</g>
		</g>
		<g>
			<g>
				<rect x="333.5" y="292.4" class="st3" width="4.6" height="8.8"/>
				<path class="st2" d="M338.6,301.7H333v-9.8h5.6V301.7z M334,300.7h3.6v-7.8H334V300.7z"/>
			</g>
			<g>
				<rect x="333.2" y="301.7" class="st4" width="5.2" height="1.3"/>
			</g>
		</g>
		<g>
			<g>
				<rect x="319.4" y="273.8" class="st3" width="4.6" height="8.8"/>
				<path class="st2" d="M324.5,283.1h-5.6v-9.8h5.6V283.1z M319.9,282.1h3.6v-7.8h-3.6V282.1z"/>
			</g>
			<g>
				<rect x="319" y="283.1" class="st4" width="5.2" height="1.3"/>
			</g>
		</g>
		<g>
			<g>
				<rect x="333.5" y="273.8" class="st3" width="4.6" height="8.8"/>
				<path class="st2" d="M338.6,283.1H333v-9.8h5.6V283.1z M334,282.1h3.6v-7.8H334V282.1z"/>
			</g>
			<g>
				<rect x="333.2" y="283.1" class="st4" width="5.2" height="1.3"/>
			</g>
		</g>
		<g>
			<g>
				<rect x="319.4" y="310.9" class="st3" width="4.6" height="8.8"/>
				<path class="st2" d="M324.5,320.2h-5.6v-9.8h5.6V320.2z M319.9,319.2h3.6v-7.8h-3.6V319.2z"/>
			</g>
			<g>
				<rect x="319" y="320.2" class="st4" width="5.2" height="1.3"/>
			</g>
		</g>
		<g>
			<g>
				<rect x="333.5" y="310.9" class="st3" width="4.6" height="8.8"/>
				<path class="st2" d="M338.6,320.2H333v-9.8h5.6V320.2z M334,319.2h3.6v-7.8H334V319.2z"/>
			</g>
			<g>
				<rect x="333.2" y="320.2" class="st4" width="5.2" height="1.3"/>
			</g>
		</g>
	</g>
	<g>
		<rect x="265.8" y="261.9" class="st5" width="151.5" height="2.9"/>
		<path class="st2" d="M417.9,265.3H265.3v-3.9h152.5V265.3z M266.3,264.3h150.5v-1.9H266.3V264.3z"/>
	</g>
	<g>
		<rect x="270.4" y="265.4" class="st4" width="142.3" height="1.3"/>
	</g>
	<g>
		<g>
			<g>
				<rect x="346.4" y="348.1" class="st3" width="4.6" height="8.8"/>
				<path class="st2" d="M351.5,357.5h-5.6v-9.8h5.6V357.5z M346.9,356.5h3.6v-7.8h-3.6V356.5z"/>
			</g>
			<g>
				<rect x="346.1" y="357.4" class="st4" width="5.2" height="1.3"/>
			</g>
		</g>
		<g>
			<g>
				<rect x="360.5" y="348.1" class="st3" width="4.6" height="8.8"/>
				<path class="st2" d="M365.6,357.5H360v-9.8h5.6V357.5z M361,356.5h3.6v-7.8H361V356.5z"/>
			</g>
			<g>
				<rect x="360.2" y="357.4" class="st4" width="5.2" height="1.3"/>
			</g>
		</g>
		<g>
			<g>
				<rect x="374.6" y="348.1" class="st3" width="4.6" height="8.8"/>
				<path class="st2" d="M379.7,357.5h-5.6v-9.8h5.6V357.5z M375.1,356.5h3.6v-7.8h-3.6V356.5z"/>
			</g>
			<g>
				<rect x="374.3" y="357.4" class="st4" width="5.2" height="1.3"/>
			</g>
		</g>
		<g>
			<g>
				<rect x="346.4" y="329.6" class="st3" width="4.6" height="8.8"/>
				<path class="st2" d="M351.5,338.9h-5.6v-9.8h5.6V338.9z M346.9,337.9h3.6v-7.8h-3.6V337.9z"/>
			</g>
			<g>
				<rect x="346.1" y="338.9" class="st4" width="5.2" height="1.3"/>
			</g>
		</g>
		<g>
			<g>
				<rect x="360.5" y="329.6" class="st3" width="4.6" height="8.8"/>
				<path class="st2" d="M365.6,338.9H360v-9.8h5.6V338.9z M361,337.9h3.6v-7.8H361V337.9z"/>
			</g>
			<g>
				<rect x="360.2" y="338.9" class="st4" width="5.2" height="1.3"/>
			</g>
		</g>
		<g>
			<g>
				<rect x="374.6" y="329.6" class="st3" width="4.6" height="8.8"/>
				<path class="st2" d="M379.7,338.9h-5.6v-9.8h5.6V338.9z M375.1,337.9h3.6v-7.8h-3.6V337.9z"/>
			</g>
			<g>
				<rect x="374.3" y="338.9" class="st4" width="5.2" height="1.3"/>
			</g>
		</g>
		<g>
			<g>
				<rect x="346.4" y="366.7" class="st3" width="4.6" height="8.8"/>
				<path class="st2" d="M351.5,376h-5.6v-9.8h5.6V376z M346.9,375h3.6v-7.8h-3.6V375z"/>
			</g>
			<g>
				<rect x="346.1" y="376" class="st4" width="5.2" height="1.3"/>
			</g>
		</g>
		<g>
			<g>
				<rect x="360.5" y="366.7" class="st3" width="4.6" height="8.8"/>
				<path class="st2" d="M365.6,376H360v-9.8h5.6V376z M361,375h3.6v-7.8H361V375z"/>
			</g>
			<g>
				<rect x="360.2" y="376" class="st4" width="5.2" height="1.3"/>
			</g>
		</g>
		<g>
			<g>
				<rect x="374.6" y="366.7" class="st3" width="4.6" height="8.8"/>
				<path class="st2" d="M379.7,376h-5.6v-9.8h5.6V376z M375.1,375h3.6v-7.8h-3.6V375z"/>
			</g>
			<g>
				<rect x="374.3" y="376" class="st4" width="5.2" height="1.3"/>
			</g>
		</g>
		<g>
			<g>
				<rect x="346.4" y="292.3" class="st3" width="4.6" height="8.8"/>
				<path class="st2" d="M351.5,301.7h-5.6v-9.8h5.6V301.7z M346.9,300.7h3.6v-7.8h-3.6V300.7z"/>
			</g>
			<g>
				<rect x="346.1" y="301.6" class="st4" width="5.2" height="1.3"/>
			</g>
		</g>
		<g>
			<g>
				<rect x="360.5" y="292.3" class="st3" width="4.6" height="8.8"/>
				<path class="st2" d="M365.6,301.7H360v-9.8h5.6V301.7z M361,300.7h3.6v-7.8H361V300.7z"/>
			</g>
			<g>
				<rect x="360.2" y="301.6" class="st4" width="5.2" height="1.3"/>
			</g>
		</g>
		<g>
			<g>
				<rect x="374.6" y="292.3" class="st3" width="4.6" height="8.8"/>
				<path class="st2" d="M379.7,301.7h-5.6v-9.8h5.6V301.7z M375.1,300.7h3.6v-7.8h-3.6V300.7z"/>
			</g>
			<g>
				<rect x="374.3" y="301.6" class="st4" width="5.2" height="1.3"/>
			</g>
		</g>
		<g>
			<g>
				<rect x="346.4" y="273.8" class="st3" width="4.6" height="8.8"/>
				<path class="st2" d="M351.5,283.1h-5.6v-9.8h5.6V283.1z M346.9,282.1h3.6v-7.8h-3.6V282.1z"/>
			</g>
			<g>
				<rect x="346.1" y="283.1" class="st4" width="5.2" height="1.3"/>
			</g>
		</g>
		<g>
			<g>
				<rect x="360.5" y="273.8" class="st3" width="4.6" height="8.8"/>
				<path class="st2" d="M365.6,283.1H360v-9.8h5.6V283.1z M361,282.1h3.6v-7.8H361V282.1z"/>
			</g>
			<g>
				<rect x="360.2" y="283.1" class="st4" width="5.2" height="1.3"/>
			</g>
		</g>
		<g>
			<g>
				<rect x="374.6" y="273.8" class="st3" width="4.6" height="8.8"/>
				<path class="st2" d="M379.7,283.1h-5.6v-9.8h5.6V283.1z M375.1,282.1h3.6v-7.8h-3.6V282.1z"/>
			</g>
			<g>
				<rect x="374.3" y="283.1" class="st4" width="5.2" height="1.3"/>
			</g>
		</g>
		<g>
			<g>
				<rect x="346.4" y="310.9" class="st3" width="4.6" height="8.8"/>
				<path class="st2" d="M351.5,320.2h-5.6v-9.8h5.6V320.2z M346.9,319.2h3.6v-7.8h-3.6V319.2z"/>
			</g>
			<g>
				<rect x="346.1" y="320.2" class="st4" width="5.2" height="1.3"/>
			</g>
		</g>
		<g>
			<g>
				<rect x="360.5" y="310.9" class="st3" width="4.6" height="8.8"/>
				<path class="st2" d="M365.6,320.2H360v-9.8h5.6V320.2z M361,319.2h3.6v-7.8H361V319.2z"/>
			</g>
			<g>
				<rect x="360.2" y="320.2" class="st4" width="5.2" height="1.3"/>
			</g>
		</g>
		<g>
			<g>
				<rect x="374.6" y="310.9" class="st3" width="4.6" height="8.8"/>
				<path class="st2" d="M379.7,320.2h-5.6v-9.8h5.6V320.2z M375.1,319.2h3.6v-7.8h-3.6V319.2z"/>
			</g>
			<g>
				<rect x="374.3" y="320.2" class="st4" width="5.2" height="1.3"/>
			</g>
		</g>
		<g>
			<g>
				<rect x="388.4" y="348.2" class="st3" width="4.6" height="8.8"/>
				<path class="st2" d="M393.5,357.5h-5.6v-9.8h5.6V357.5z M388.9,356.5h3.6v-7.8h-3.6V356.5z"/>
			</g>
			<g>
				<rect x="388" y="357.5" class="st4" width="5.2" height="1.3"/>
			</g>
		</g>
		<g>
			<g>
				<rect x="402.5" y="348.2" class="st3" width="4.6" height="8.8"/>
				<path class="st2" d="M407.6,357.5H402v-9.8h5.6V357.5z M403,356.5h3.6v-7.8H403V356.5z"/>
			</g>
			<g>
				<rect x="402.2" y="357.5" class="st4" width="5.2" height="1.3"/>
			</g>
		</g>
		<g>
			<g>
				<rect x="388.4" y="329.6" class="st3" width="4.6" height="8.8"/>
				<path class="st2" d="M393.5,338.9h-5.6v-9.8h5.6V338.9z M388.9,337.9h3.6v-7.8h-3.6V337.9z"/>
			</g>
			<g>
				<rect x="388" y="338.9" class="st4" width="5.2" height="1.3"/>
			</g>
		</g>
		<g>
			<g>
				<rect x="402.5" y="329.6" class="st3" width="4.6" height="8.8"/>
				<path class="st2" d="M407.6,338.9H402v-9.8h5.6V338.9z M403,337.9h3.6v-7.8H403V337.9z"/>
			</g>
			<g>
				<rect x="402.2" y="338.9" class="st4" width="5.2" height="1.3"/>
			</g>
		</g>
		<g>
			<g>
				<rect x="388.4" y="366.7" class="st3" width="4.6" height="8.8"/>
				<path class="st2" d="M393.5,376h-5.6v-9.8h5.6V376z M388.9,375h3.6v-7.8h-3.6V375z"/>
			</g>
			<g>
				<rect x="388" y="376" class="st4" width="5.2" height="1.3"/>
			</g>
		</g>
		<g>
			<g>
				<rect x="402.5" y="366.7" class="st3" width="4.6" height="8.8"/>
				<path class="st2" d="M407.6,376H402v-9.8h5.6V376z M403,375h3.6v-7.8H403V375z"/>
			</g>
			<g>
				<rect x="402.2" y="376" class="st4" width="5.2" height="1.3"/>
			</g>
		</g>
		<g>
			<g>
				<rect x="388.4" y="292.4" class="st3" width="4.6" height="8.8"/>
				<path class="st2" d="M393.5,301.7h-5.6v-9.8h5.6V301.7z M388.9,300.7h3.6v-7.8h-3.6V300.7z"/>
			</g>
			<g>
				<rect x="388" y="301.7" class="st4" width="5.2" height="1.3"/>
			</g>
		</g>
		<g>
			<g>
				<rect x="402.5" y="292.4" class="st3" width="4.6" height="8.8"/>
				<path class="st2" d="M407.6,301.7H402v-9.8h5.6V301.7z M403,300.7h3.6v-7.8H403V300.7z"/>
			</g>
			<g>
				<rect x="402.2" y="301.7" class="st4" width="5.2" height="1.3"/>
			</g>
		</g>
		<g>
			<g>
				<rect x="388.4" y="273.8" class="st3" width="4.6" height="8.8"/>
				<path class="st2" d="M393.5,283.1h-5.6v-9.8h5.6V283.1z M388.9,282.1h3.6v-7.8h-3.6V282.1z"/>
			</g>
			<g>
				<rect x="388" y="283.1" class="st4" width="5.2" height="1.3"/>
			</g>
		</g>
		<g>
			<g>
				<rect x="402.5" y="273.8" class="st3" width="4.6" height="8.8"/>
				<path class="st2" d="M407.6,283.1H402v-9.8h5.6V283.1z M403,282.1h3.6v-7.8H403V282.1z"/>
			</g>
			<g>
				<rect x="402.2" y="283.1" class="st4" width="5.2" height="1.3"/>
			</g>
		</g>
		<g>
			<g>
				<rect x="388.4" y="310.9" class="st3" width="4.6" height="8.8"/>
				<path class="st2" d="M393.5,320.2h-5.6v-9.8h5.6V320.2z M388.9,319.2h3.6v-7.8h-3.6V319.2z"/>
			</g>
			<g>
				<rect x="388" y="320.2" class="st4" width="5.2" height="1.3"/>
			</g>
		</g>
		<g>
			<g>
				<rect x="402.5" y="310.9" class="st3" width="4.6" height="8.8"/>
				<path class="st2" d="M407.6,320.2H402v-9.8h5.6V320.2z M403,319.2h3.6v-7.8H403V319.2z"/>
			</g>
			<g>
				<rect x="402.2" y="320.2" class="st4" width="5.2" height="1.3"/>
			</g>
		</g>
	</g>
	<g>
		<path class="st2" d="M414.3,400H268.9v-14.4h145.4V400z M269.9,399h143.4v-12.4H269.9V399z"/>
	</g>
	<g>
		<rect x="270.5" y="386.8" class="st4" width="142.3" height="1.3"/>
	</g>
</g>
<g>
	<g>
		<polygon class="st6" points="303.5,291.3 234.1,291.3 234.1,286.8 298.7,286.8 		"/>
		<path class="st2" d="M303.5,291.8h-69.4c-0.3,0-0.5-0.2-0.5-0.5v-4.5c0-0.3,0.2-0.5,0.5-0.5h64.6c0.1,0,0.2,0,0.3,0.1l4.8,4.5
			c0.1,0.1,0.2,0.4,0.1,0.5C303.9,291.6,303.7,291.8,303.5,291.8z M234.6,290.8h67.6l-3.7-3.5h-63.9V290.8z"/>
	</g>
	<g>
		<rect x="233.5" y="293.9" class="st7" width="78.9" height="105.8"/>
		<path class="st2" d="M313,400.3H233V293.4H313V400.3z M234,399.3H312V294.4H234V399.3z"/>
	</g>
	<g>
		<g>
			<g>
				<rect x="243.2" y="377.5" class="st3" width="4.6" height="8.8"/>
				<path class="st2" d="M248.3,386.8h-5.6V377h5.6V386.8z M243.7,385.8h3.6V378h-3.6V385.8z"/>
			</g>
			<g>
				<rect x="242.9" y="386.7" class="st4" width="5.2" height="1.3"/>
			</g>
		</g>
		<g>
			<g>
				<rect x="257.3" y="377.5" class="st3" width="4.6" height="8.8"/>
				<path class="st2" d="M262.4,386.8h-5.6V377h5.6V386.8z M257.8,385.8h3.6V378h-3.6V385.8z"/>
			</g>
			<g>
				<rect x="257" y="386.7" class="st4" width="5.2" height="1.3"/>
			</g>
		</g>
		<g>
			<g>
				<rect x="271.4" y="377.5" class="st3" width="4.6" height="8.8"/>
				<path class="st2" d="M276.5,386.8h-5.6V377h5.6V386.8z M271.9,385.8h3.6V378h-3.6V385.8z"/>
			</g>
			<g>
				<rect x="271.1" y="386.7" class="st4" width="5.2" height="1.3"/>
			</g>
		</g>
		<g>
			<g>
				<rect x="243.2" y="358.9" class="st3" width="4.6" height="8.8"/>
				<path class="st2" d="M248.3,368.2h-5.6v-9.8h5.6V368.2z M243.7,367.2h3.6v-7.8h-3.6V367.2z"/>
			</g>
			<g>
				<rect x="242.9" y="368.2" class="st4" width="5.2" height="1.3"/>
			</g>
		</g>
		<g>
			<g>
				<rect x="257.3" y="358.9" class="st3" width="4.6" height="8.8"/>
				<path class="st2" d="M262.4,368.2h-5.6v-9.8h5.6V368.2z M257.8,367.2h3.6v-7.8h-3.6V367.2z"/>
			</g>
			<g>
				<rect x="257" y="368.2" class="st4" width="5.2" height="1.3"/>
			</g>
		</g>
		<g>
			<g>
				<rect x="271.4" y="358.9" class="st3" width="4.6" height="8.8"/>
				<path class="st2" d="M276.5,368.2h-5.6v-9.8h5.6V368.2z M271.9,367.2h3.6v-7.8h-3.6V367.2z"/>
			</g>
			<g>
				<rect x="271.1" y="368.2" class="st4" width="5.2" height="1.3"/>
			</g>
		</g>
		<g>
			<g>
				<rect x="243.2" y="321.7" class="st3" width="4.6" height="8.8"/>
				<path class="st2" d="M248.3,331h-5.6v-9.8h5.6V331z M243.7,330h3.6v-7.8h-3.6V330z"/>
			</g>
			<g>
				<rect x="242.9" y="330.9" class="st4" width="5.2" height="1.3"/>
			</g>
		</g>
		<g>
			<g>
				<rect x="257.3" y="321.7" class="st3" width="4.6" height="8.8"/>
				<path class="st2" d="M262.4,331h-5.6v-9.8h5.6V331z M257.8,330h3.6v-7.8h-3.6V330z"/>
			</g>
			<g>
				<rect x="257" y="330.9" class="st4" width="5.2" height="1.3"/>
			</g>
		</g>
		<g>
			<g>
				<rect x="271.4" y="321.7" class="st3" width="4.6" height="8.8"/>
				<path class="st2" d="M276.5,331h-5.6v-9.8h5.6V331z M271.9,330h3.6v-7.8h-3.6V330z"/>
			</g>
			<g>
				<rect x="271.1" y="330.9" class="st4" width="5.2" height="1.3"/>
			</g>
		</g>
		<g>
			<g>
				<rect x="243.2" y="303.1" class="st3" width="4.6" height="8.8"/>
				<path class="st2" d="M248.3,312.4h-5.6v-9.8h5.6V312.4z M243.7,311.4h3.6v-7.8h-3.6V311.4z"/>
			</g>
			<g>
				<rect x="242.9" y="312.4" class="st4" width="5.2" height="1.3"/>
			</g>
		</g>
		<g>
			<g>
				<rect x="257.3" y="303.1" class="st3" width="4.6" height="8.8"/>
				<path class="st2" d="M262.4,312.4h-5.6v-9.8h5.6V312.4z M257.8,311.4h3.6v-7.8h-3.6V311.4z"/>
			</g>
			<g>
				<rect x="257" y="312.4" class="st4" width="5.2" height="1.3"/>
			</g>
		</g>
		<g>
			<g>
				<rect x="271.4" y="303.1" class="st3" width="4.6" height="8.8"/>
				<path class="st2" d="M276.5,312.4h-5.6v-9.8h5.6V312.4z M271.9,311.4h3.6v-7.8h-3.6V311.4z"/>
			</g>
			<g>
				<rect x="271.1" y="312.4" class="st4" width="5.2" height="1.3"/>
			</g>
		</g>
		<g>
			<g>
				<rect x="243.2" y="340.2" class="st3" width="4.6" height="8.8"/>
				<path class="st2" d="M248.3,349.5h-5.6v-9.8h5.6V349.5z M243.7,348.5h3.6v-7.8h-3.6V348.5z"/>
			</g>
			<g>
				<rect x="242.9" y="349.5" class="st4" width="5.2" height="1.3"/>
			</g>
		</g>
		<g>
			<g>
				<rect x="257.3" y="340.2" class="st3" width="4.6" height="8.8"/>
				<path class="st2" d="M262.4,349.5h-5.6v-9.8h5.6V349.5z M257.8,348.5h3.6v-7.8h-3.6V348.5z"/>
			</g>
			<g>
				<rect x="257" y="349.5" class="st4" width="5.2" height="1.3"/>
			</g>
		</g>
		<g>
			<g>
				<rect x="271.4" y="340.2" class="st3" width="4.6" height="8.8"/>
				<path class="st2" d="M276.5,349.5h-5.6v-9.8h5.6V349.5z M271.9,348.5h3.6v-7.8h-3.6V348.5z"/>
			</g>
			<g>
				<rect x="271.1" y="349.5" class="st4" width="5.2" height="1.3"/>
			</g>
		</g>
		<g>
			<g>
				<rect x="285.1" y="377.5" class="st3" width="4.6" height="8.8"/>
				<path class="st2" d="M290.2,386.8h-5.6V377h5.6V386.8z M285.6,385.8h3.6V378h-3.6V385.8z"/>
			</g>
			<g>
				<rect x="284.8" y="386.8" class="st4" width="5.2" height="1.3"/>
			</g>
		</g>
		<g>
			<g>
				<rect x="299.2" y="377.5" class="st3" width="4.6" height="8.8"/>
				<path class="st2" d="M304.3,386.8h-5.6V377h5.6V386.8z M299.7,385.8h3.6V378h-3.6V385.8z"/>
			</g>
			<g>
				<rect x="298.9" y="386.8" class="st4" width="5.2" height="1.3"/>
			</g>
		</g>
		<g>
			<g>
				<rect x="285.1" y="358.9" class="st3" width="4.6" height="8.8"/>
				<path class="st2" d="M290.2,368.2h-5.6v-9.8h5.6V368.2z M285.6,367.2h3.6v-7.8h-3.6V367.2z"/>
			</g>
			<g>
				<rect x="284.8" y="368.2" class="st4" width="5.2" height="1.3"/>
			</g>
		</g>
		<g>
			<g>
				<rect x="299.2" y="358.9" class="st3" width="4.6" height="8.8"/>
				<path class="st2" d="M304.3,368.2h-5.6v-9.8h5.6V368.2z M299.7,367.2h3.6v-7.8h-3.6V367.2z"/>
			</g>
			<g>
				<rect x="298.9" y="368.2" class="st4" width="5.2" height="1.3"/>
			</g>
		</g>
		<g>
			<g>
				<rect x="285.1" y="321.7" class="st3" width="4.6" height="8.8"/>
				<path class="st2" d="M290.2,331h-5.6v-9.8h5.6V331z M285.6,330h3.6v-7.8h-3.6V330z"/>
			</g>
			<g>
				<rect x="284.8" y="331" class="st4" width="5.2" height="1.3"/>
			</g>
		</g>
		<g>
			<g>
				<rect x="299.2" y="321.7" class="st3" width="4.6" height="8.8"/>
				<path class="st2" d="M304.3,331h-5.6v-9.8h5.6V331z M299.7,330h3.6v-7.8h-3.6V330z"/>
			</g>
			<g>
				<rect x="298.9" y="331" class="st4" width="5.2" height="1.3"/>
			</g>
		</g>
		<g>
			<g>
				<rect x="285.1" y="303.1" class="st3" width="4.6" height="8.8"/>
				<path class="st2" d="M290.2,312.4h-5.6v-9.8h5.6V312.4z M285.6,311.4h3.6v-7.8h-3.6V311.4z"/>
			</g>
			<g>
				<rect x="284.8" y="312.4" class="st4" width="5.2" height="1.3"/>
			</g>
		</g>
		<g>
			<g>
				<rect x="299.2" y="303.1" class="st3" width="4.6" height="8.8"/>
				<path class="st2" d="M304.3,312.4h-5.6v-9.8h5.6V312.4z M299.7,311.4h3.6v-7.8h-3.6V311.4z"/>
			</g>
			<g>
				<rect x="298.9" y="312.4" class="st4" width="5.2" height="1.3"/>
			</g>
		</g>
		<g>
			<g>
				<rect x="285.1" y="340.3" class="st3" width="4.6" height="8.8"/>
				<path class="st2" d="M290.2,349.6h-5.6v-9.8h5.6V349.6z M285.6,348.6h3.6v-7.8h-3.6V348.6z"/>
			</g>
			<g>
				<rect x="284.8" y="349.5" class="st4" width="5.2" height="1.3"/>
			</g>
		</g>
		<g>
			<g>
				<rect x="299.2" y="340.3" class="st3" width="4.6" height="8.8"/>
				<path class="st2" d="M304.3,349.6h-5.6v-9.8h5.6V349.6z M299.7,348.6h3.6v-7.8h-3.6V348.6z"/>
			</g>
			<g>
				<rect x="298.9" y="349.5" class="st4" width="5.2" height="1.3"/>
			</g>
		</g>
	</g>
	<g>
		<rect x="231.6" y="291.3" class="st5" width="82.8" height="2.9"/>
		<path class="st2" d="M314.9,294.6h-83.8v-3.9h83.8V294.6z M232.1,293.6h81.8v-1.9h-81.8V293.6z"/>
	</g>
	<g>
		<rect x="234.1" y="294.7" class="st4" width="77.7" height="1.3"/>
	</g>
</g>
<g>
	<g>
		<rect x="58.5" y="341.5" class="st8" width="30.2" height="57.9"/>
		<path class="st2" d="M89.2,399.9H58V341h31.2V399.9z M59,398.9h29.2V342H59V398.9z"/>
	</g>
	<g>
		<rect x="70.6" y="382.4" class="st3" width="6" height="16.9"/>
		<path class="st2" d="M77.1,399.9h-7v-17.9h7V399.9z M71.1,398.9h5v-15.9h-5V398.9z"/>
	</g>
	<g>
		<rect x="70.6" y="365.4" class="st3" width="6" height="7.9"/>
		<path class="st2" d="M77.1,373.9h-7v-8.9h7V373.9z M71.1,372.9h5v-6.9h-5V372.9z"/>
	</g>
	<g>
		<rect x="70.6" y="349" class="st3" width="6" height="7.9"/>
		<path class="st2" d="M77.1,357.4h-7v-8.9h7V357.4z M71.1,356.4h5v-6.9h-5V356.4z"/>
	</g>
	<g>
		<rect x="71.9" y="383.7" class="st6" width="3.4" height="14.4"/>
	</g>
	<g>
		<rect x="70.2" y="373.8" class="st4" width="6.8" height="1.1"/>
	</g>
	<g>
		<rect x="70.2" y="357.2" class="st4" width="6.8" height="1.1"/>
	</g>
	<g>
		<rect x="57.2" y="339" class="st9" width="31.5" height="2.5"/>
		<path class="st2" d="M89.2,342H56.7v-3.5h32.5V342z M57.7,341h30.5v-1.5H57.7V341z"/>
	</g>
	<g>
		<rect x="88.7" y="341.5" class="st8" width="68.4" height="57.9"/>
		<path class="st2" d="M157.6,399.9H88.2V341h69.4V399.9z M89.2,398.9h67.4V342H89.2V398.9z"/>
	</g>
	<g>
		<rect x="88.7" y="339" class="st9" width="68.4" height="2.5"/>
		<path class="st2" d="M157.6,342H88.2v-3.5h69.4V342z M89.2,341h67.4v-1.5H89.2V341z"/>
	</g>
	<g>
		<g>
			<rect x="102" y="365.5" class="st3" width="6" height="7.9"/>
			<path class="st2" d="M108.4,373.9h-7V365h7V373.9z M102.5,372.9h5V366h-5V372.9z"/>
		</g>
		<g>
			<rect x="101.6" y="373.8" class="st4" width="6.8" height="1.1"/>
		</g>
	</g>
	<g>
		<g>
			<rect x="120.2" y="365.5" class="st3" width="6" height="7.9"/>
			<path class="st2" d="M126.7,373.9h-7V365h7V373.9z M120.7,372.9h5V366h-5V372.9z"/>
		</g>
		<g>
			<rect x="119.8" y="373.8" class="st4" width="6.8" height="1.1"/>
		</g>
	</g>
	<g>
		<g>
			<rect x="138.5" y="365.5" class="st3" width="6" height="7.9"/>
			<path class="st2" d="M145,373.9h-7V365h7V373.9z M139,372.9h5V366h-5V372.9z"/>
		</g>
		<g>
			<rect x="138.1" y="373.8" class="st4" width="6.8" height="1.1"/>
		</g>
	</g>
	<g>
		<g>
			<rect x="102" y="348.9" class="st3" width="6" height="7.9"/>
			<path class="st2" d="M108.4,357.3h-7v-8.9h7V357.3z M102.5,356.3h5v-6.9h-5V356.3z"/>
		</g>
		<g>
			<rect x="101.6" y="357.2" class="st4" width="6.8" height="1.1"/>
		</g>
	</g>
	<g>
		<g>
			<rect x="120.2" y="348.9" class="st3" width="6" height="7.9"/>
			<path class="st2" d="M126.7,357.3h-7v-8.9h7V357.3z M120.7,356.3h5v-6.9h-5V356.3z"/>
		</g>
		<g>
			<rect x="119.8" y="357.2" class="st4" width="6.8" height="1.1"/>
		</g>
	</g>
	<g>
		<g>
			<rect x="138.5" y="348.9" class="st3" width="6" height="7.9"/>
			<path class="st2" d="M145,357.3h-7v-8.9h7V357.3z M139,356.3h5v-6.9h-5V356.3z"/>
		</g>
		<g>
			<rect x="138.1" y="357.2" class="st4" width="6.8" height="1.1"/>
		</g>
	</g>
	<g>
		<g>
			<rect x="102" y="382.2" class="st3" width="6" height="7.9"/>
			<path class="st2" d="M108.4,390.6h-7v-8.9h7V390.6z M102.5,389.6h5v-6.9h-5V389.6z"/>
		</g>
		<g>
			<rect x="101.6" y="390.5" class="st4" width="6.8" height="1.1"/>
		</g>
	</g>
	<g>
		<g>
			<rect x="120.2" y="382.2" class="st3" width="6" height="7.9"/>
			<path class="st2" d="M126.7,390.6h-7v-8.9h7V390.6z M120.7,389.6h5v-6.9h-5V389.6z"/>
		</g>
		<g>
			<rect x="119.8" y="390.5" class="st4" width="6.8" height="1.1"/>
		</g>
	</g>
	<g>
		<g>
			<rect x="138.5" y="382.2" class="st3" width="6" height="7.9"/>
			<path class="st2" d="M145,390.6h-7v-8.9h7V390.6z M139,389.6h5v-6.9h-5V389.6z"/>
		</g>
		<g>
			<rect x="138.1" y="390.5" class="st4" width="6.8" height="1.1"/>
		</g>
	</g>
	<g>
		<path class="st6" d="M88.7,339H58.5c0.1-0.9,0.3-1.7,0.6-2.4c4.1-10.8,26.8-10.6,29.7-10.6C88.7,330.4,88.7,334.7,88.7,339z"/>
		<path class="st2" d="M89.2,339.5H57.9L58,339c0.1-0.9,0.3-1.7,0.6-2.5c4.1-10.8,25.8-10.9,30.1-10.9l0.5,0V339.5z M59.1,338.5
			h29.2v-12c-5.1,0-25,0.5-28.7,10.2C59.3,337.3,59.2,337.9,59.1,338.5z"/>
	</g>
	<g>
		<rect x="88.7" y="326" class="st6" width="68.4" height="13"/>
		<path class="st2" d="M157.6,339.5H88.2v-14h69.4V339.5z M89.2,338.5h67.4v-12H89.2V338.5z"/>
	</g>
	<g>
		<rect x="89.4" y="342.1" class="st4" width="67" height="1.9"/>
	</g>
	<g>
		<rect x="59.2" y="342.1" class="st4" width="28.8" height="1.9"/>
	</g>
</g>
<g>
	<g>
		<rect x="154.9" y="275.5" class="st3" width="78.9" height="124.3"/>
		<path class="st2" d="M234.3,400.3h-79.9V275h79.9V400.3z M155.4,399.3h77.9V276h-77.9V399.3z"/>
	</g>
	<g>
		<rect x="153" y="272.8" class="st5" width="82.8" height="2.9"/>
		<path class="st2" d="M236.3,276.2h-83.8v-3.9h83.8V276.2z M153.5,275.2h81.8v-1.9h-81.8V275.2z"/>
	</g>
	<g>
		<rect x="155.5" y="276.3" class="st4" width="77.7" height="1.3"/>
	</g>
	<g>
		<g>
			<g>
				<rect x="154.9" y="385.1" class="st3" width="78.6" height="14.4"/>
				<path class="st2" d="M234,400h-79.6v-15.4H234V400z M155.4,399H233v-13.4h-77.6V399z"/>
			</g>
		</g>
		<g>
			<g>
				<rect x="164.5" y="359" class="st3" width="4.6" height="8.8"/>
				<path class="st2" d="M169.6,368.3H164v-9.8h5.6V368.3z M165,367.3h3.6v-7.8H165V367.3z"/>
			</g>
			<g>
				<rect x="164.2" y="368.3" class="st4" width="5.2" height="1.3"/>
			</g>
		</g>
		<g>
			<g>
				<rect x="178.6" y="359" class="st3" width="4.6" height="8.8"/>
				<path class="st2" d="M183.7,368.3h-5.6v-9.8h5.6V368.3z M179.1,367.3h3.6v-7.8h-3.6V367.3z"/>
			</g>
			<g>
				<rect x="178.3" y="368.3" class="st4" width="5.2" height="1.3"/>
			</g>
		</g>
		<g>
			<g>
				<rect x="192.7" y="359" class="st3" width="4.6" height="8.8"/>
				<path class="st2" d="M197.9,368.3h-5.6v-9.8h5.6V368.3z M193.2,367.3h3.6v-7.8h-3.6V367.3z"/>
			</g>
			<g>
				<rect x="192.4" y="368.3" class="st4" width="5.2" height="1.3"/>
			</g>
		</g>
		<g>
			<g>
				<rect x="164.5" y="340.4" class="st3" width="4.6" height="8.8"/>
				<path class="st2" d="M169.6,349.7H164v-9.8h5.6V349.7z M165,348.7h3.6v-7.8H165V348.7z"/>
			</g>
			<g>
				<rect x="164.2" y="349.7" class="st4" width="5.2" height="1.3"/>
			</g>
		</g>
		<g>
			<g>
				<rect x="178.6" y="340.4" class="st3" width="4.6" height="8.8"/>
				<path class="st2" d="M183.7,349.7h-5.6v-9.8h5.6V349.7z M179.1,348.7h3.6v-7.8h-3.6V348.7z"/>
			</g>
			<g>
				<rect x="178.3" y="349.7" class="st4" width="5.2" height="1.3"/>
			</g>
		</g>
		<g>
			<g>
				<rect x="192.7" y="340.4" class="st3" width="4.6" height="8.8"/>
				<path class="st2" d="M197.9,349.7h-5.6v-9.8h5.6V349.7z M193.2,348.7h3.6v-7.8h-3.6V348.7z"/>
			</g>
			<g>
				<rect x="192.4" y="349.7" class="st4" width="5.2" height="1.3"/>
			</g>
		</g>
		<g>
			<g>
				<rect x="185.9" y="377.6" class="st3" width="9" height="21.9"/>
				<path class="st2" d="M195.3,399.9h-10v-22.9h10V399.9z M186.4,398.9h8v-20.9h-8V398.9z"/>
			</g>
		</g>
		<g>
			<g>
				<rect x="164.5" y="303.2" class="st3" width="4.6" height="8.8"/>
				<path class="st2" d="M169.6,312.5H164v-9.8h5.6V312.5z M165,311.5h3.6v-7.8H165V311.5z"/>
			</g>
			<g>
				<rect x="164.2" y="312.5" class="st4" width="5.2" height="1.3"/>
			</g>
		</g>
		<g>
			<g>
				<rect x="178.6" y="303.2" class="st3" width="4.6" height="8.8"/>
				<path class="st2" d="M183.7,312.5h-5.6v-9.8h5.6V312.5z M179.1,311.5h3.6v-7.8h-3.6V311.5z"/>
			</g>
			<g>
				<rect x="178.3" y="312.5" class="st4" width="5.2" height="1.3"/>
			</g>
		</g>
		<g>
			<g>
				<rect x="192.7" y="303.2" class="st3" width="4.6" height="8.8"/>
				<path class="st2" d="M197.9,312.5h-5.6v-9.8h5.6V312.5z M193.2,311.5h3.6v-7.8h-3.6V311.5z"/>
			</g>
			<g>
				<rect x="192.4" y="312.5" class="st4" width="5.2" height="1.3"/>
			</g>
		</g>
		<g>
			<g>
				<rect x="164.5" y="284.6" class="st3" width="4.6" height="8.8"/>
				<path class="st2" d="M169.6,293.9H164v-9.8h5.6V293.9z M165,292.9h3.6v-7.8H165V292.9z"/>
			</g>
			<g>
				<rect x="164.2" y="293.9" class="st4" width="5.2" height="1.3"/>
			</g>
		</g>
		<g>
			<g>
				<rect x="178.6" y="284.6" class="st3" width="4.6" height="8.8"/>
				<path class="st2" d="M183.7,293.9h-5.6v-9.8h5.6V293.9z M179.1,292.9h3.6v-7.8h-3.6V292.9z"/>
			</g>
			<g>
				<rect x="178.3" y="293.9" class="st4" width="5.2" height="1.3"/>
			</g>
		</g>
		<g>
			<g>
				<rect x="192.7" y="284.6" class="st3" width="4.6" height="8.8"/>
				<path class="st2" d="M197.9,293.9h-5.6v-9.8h5.6V293.9z M193.2,292.9h3.6v-7.8h-3.6V292.9z"/>
			</g>
			<g>
				<rect x="192.4" y="293.9" class="st4" width="5.2" height="1.3"/>
			</g>
		</g>
		<g>
			<g>
				<rect x="164.5" y="321.8" class="st3" width="4.6" height="8.8"/>
				<path class="st2" d="M169.6,331.1H164v-9.8h5.6V331.1z M165,330.1h3.6v-7.8H165V330.1z"/>
			</g>
			<g>
				<rect x="164.2" y="331" class="st4" width="5.2" height="1.3"/>
			</g>
		</g>
		<g>
			<g>
				<rect x="178.6" y="321.8" class="st3" width="4.6" height="8.8"/>
				<path class="st2" d="M183.7,331.1h-5.6v-9.8h5.6V331.1z M179.1,330.1h3.6v-7.8h-3.6V330.1z"/>
			</g>
			<g>
				<rect x="178.3" y="331" class="st4" width="5.2" height="1.3"/>
			</g>
		</g>
		<g>
			<g>
				<rect x="192.7" y="321.8" class="st3" width="4.6" height="8.8"/>
				<path class="st2" d="M197.9,331.1h-5.6v-9.8h5.6V331.1z M193.2,330.1h3.6v-7.8h-3.6V330.1z"/>
			</g>
			<g>
				<rect x="192.4" y="331" class="st4" width="5.2" height="1.3"/>
			</g>
		</g>
		<g>
			<g>
				<rect x="206.5" y="359" class="st3" width="4.6" height="8.8"/>
				<path class="st2" d="M211.6,368.3H206v-9.8h5.6V368.3z M207,367.3h3.6v-7.8H207V367.3z"/>
			</g>
			<g>
				<rect x="206.2" y="368.3" class="st4" width="5.2" height="1.3"/>
			</g>
		</g>
		<g>
			<g>
				<rect x="220.6" y="359" class="st3" width="4.6" height="8.8"/>
				<path class="st2" d="M225.7,368.3h-5.6v-9.8h5.6V368.3z M221.1,367.3h3.6v-7.8h-3.6V367.3z"/>
			</g>
			<g>
				<rect x="220.3" y="368.3" class="st4" width="5.2" height="1.3"/>
			</g>
		</g>
		<g>
			<g>
				<rect x="206.5" y="340.5" class="st3" width="4.6" height="8.8"/>
				<path class="st2" d="M211.6,349.8H206V340h5.6V349.8z M207,348.8h3.6V341H207V348.8z"/>
			</g>
			<g>
				<rect x="206.2" y="349.7" class="st4" width="5.2" height="1.3"/>
			</g>
		</g>
		<g>
			<g>
				<rect x="220.6" y="340.5" class="st3" width="4.6" height="8.8"/>
				<path class="st2" d="M225.7,349.8h-5.6V340h5.6V349.8z M221.1,348.8h3.6V341h-3.6V348.8z"/>
			</g>
			<g>
				<rect x="220.3" y="349.7" class="st4" width="5.2" height="1.3"/>
			</g>
		</g>
		<g>
			<g>
				<rect x="206.5" y="303.2" class="st3" width="4.6" height="8.8"/>
				<path class="st2" d="M211.6,312.5H206v-9.8h5.6V312.5z M207,311.5h3.6v-7.8H207V311.5z"/>
			</g>
			<g>
				<rect x="206.2" y="312.5" class="st4" width="5.2" height="1.3"/>
			</g>
		</g>
		<g>
			<g>
				<rect x="220.6" y="303.2" class="st3" width="4.6" height="8.8"/>
				<path class="st2" d="M225.7,312.5h-5.6v-9.8h5.6V312.5z M221.1,311.5h3.6v-7.8h-3.6V311.5z"/>
			</g>
			<g>
				<rect x="220.3" y="312.5" class="st4" width="5.2" height="1.3"/>
			</g>
		</g>
		<g>
			<g>
				<rect x="206.5" y="284.7" class="st3" width="4.6" height="8.8"/>
				<path class="st2" d="M211.6,294H206v-9.8h5.6V294z M207,293h3.6v-7.8H207V293z"/>
			</g>
			<g>
				<rect x="206.2" y="293.9" class="st4" width="5.2" height="1.3"/>
			</g>
		</g>
		<g>
			<g>
				<rect x="220.6" y="284.7" class="st3" width="4.6" height="8.8"/>
				<path class="st2" d="M225.7,294h-5.6v-9.8h5.6V294z M221.1,293h3.6v-7.8h-3.6V293z"/>
			</g>
			<g>
				<rect x="220.3" y="293.9" class="st4" width="5.2" height="1.3"/>
			</g>
		</g>
		<g>
			<g>
				<rect x="206.5" y="321.8" class="st3" width="4.6" height="8.8"/>
				<path class="st2" d="M211.6,331.1H206v-9.8h5.6V331.1z M207,330.1h3.6v-7.8H207V330.1z"/>
			</g>
			<g>
				<rect x="206.2" y="331.1" class="st4" width="5.2" height="1.3"/>
			</g>
		</g>
		<g>
			<g>
				<rect x="220.6" y="321.8" class="st3" width="4.6" height="8.8"/>
				<path class="st2" d="M225.7,331.1h-5.6v-9.8h5.6V331.1z M221.1,330.1h3.6v-7.8h-3.6V330.1z"/>
			</g>
			<g>
				<rect x="220.3" y="331.1" class="st4" width="5.2" height="1.3"/>
			</g>
		</g>
		<g>
			<g>
				<rect x="194.8" y="377.6" class="st3" width="9.5" height="21.8"/>
				<path class="st2" d="M204.8,399.9h-10.5v-22.8h10.5V399.9z M195.3,398.9h8.5v-20.8h-8.5V398.9z"/>
			</g>
			<g>
				
					<rect x="192.5" y="386.4" transform="matrix(-1.836970e-16 1 -1 -1.836970e-16 587.5731 188.412)" class="st4" width="14.2" height="3.1"/>
			</g>
			<g>
				
					<rect x="183.2" y="386.6" transform="matrix(-1.836970e-16 1 -1 -1.836970e-16 578.4948 197.8011)" class="st4" width="14.2" height="3.1"/>
			</g>
		</g>
	</g>
</g>
<g>
	<g>
		<g>
			
				<rect x="420.4" y="320.7" transform="matrix(-1 -4.472967e-11 4.472967e-11 -1 846.7034 650.9426)" class="st2" width="6" height="9.5"/>
		</g>
		<g>
			<g>
				
					<rect x="419.9" y="330.7" transform="matrix(-1 -4.500856e-11 4.500856e-11 -1 846.6454 662.3241)" class="st2" width="6.8" height="1"/>
			</g>
		</g>
	</g>
	<g>
		
			<rect x="433.8" y="372.1" transform="matrix(-1 -4.487933e-11 4.487933e-11 -1 897.9006 771.5787)" class="st3" width="30.2" height="27.5"/>
		<path class="st2" d="M464.6,400h-31.2v-28.5h31.2V400z M434.3,399h29.2v-26.5h-29.2V399z"/>
	</g>
	<g>
		<g>
			
				<rect x="440" y="381.7" transform="matrix(-1 -4.503388e-11 4.503388e-11 -1 886.0204 781.2453)" class="st3" width="6" height="17.8"/>
			<path class="st2" d="M446.5,400h-7v-18.8h7V400z M440.5,399h5v-16.8h-5V399z"/>
		</g>
		<g>
			<g>
				
					<rect x="441.3" y="383.1" transform="matrix(-1 -4.483404e-11 4.483404e-11 -1 886.0576 781.2822)" class="st6" width="3.4" height="15.1"/>
			</g>
		</g>
	</g>
	<g>
		
			<rect x="433.8" y="369.4" transform="matrix(-1 -4.483270e-11 4.483270e-11 -1 899.1493 741.3239)" class="st9" width="31.5" height="2.5"/>
		<path class="st2" d="M465.8,372.4h-32.5v-3.5h32.5V372.4z M434.3,371.4h30.5v-1.5h-30.5V371.4z"/>
	</g>
	<g>
		
			<rect x="387" y="341.7" transform="matrix(-1 -4.490687e-11 4.490687e-11 -1 820.8401 741.1904)" class="st3" width="46.8" height="57.9"/>
		<path class="st2" d="M434.3,400h-47.8v-58.9h47.8V400z M387.5,399h45.8v-56.9h-45.8V399z"/>
	</g>
	<g>
		
			<rect x="387" y="339.2" transform="matrix(-1 -4.486823e-11 4.486823e-11 -1 820.8401 680.8377)" class="st9" width="46.8" height="2.5"/>
		<path class="st2" d="M434.3,342.2h-47.8v-3.5h47.8V342.2z M387.5,341.2h45.8v-1.5h-45.8V341.2z"/>
	</g>
	<g>
		<path class="st10" d="M433.8,369.4h30.2c-0.1-1.4-30.2-20.1-30.2-20.1S433.8,362.7,433.8,369.4z"/>
		<path class="st2" d="M464.6,369.9h-31.3v-21.5l0.8,0.5c13.9,8.6,30.4,19.2,30.5,20.5L464.6,369.9z M434.3,368.9h28.6
			c-3.4-2.8-18.5-12.4-28.6-18.7V368.9z"/>
	</g>
	<g>
		
			<rect x="387" y="326.2" transform="matrix(-1 -4.490687e-11 4.490687e-11 -1 820.8401 665.3675)" class="st10" width="46.8" height="13"/>
		<path class="st2" d="M434.3,339.7h-47.8v-14h47.8V339.7z M387.5,338.7h45.8v-12h-45.8V338.7z"/>
	</g>
	<g>
		
			<rect x="387.7" y="342.3" transform="matrix(-1 -4.491175e-11 4.491175e-11 -1 820.8364 686.4962)" class="st4" width="45.4" height="1.9"/>
	</g>
	<g>
		
			<rect x="434.5" y="373" transform="matrix(-1 -4.487889e-11 4.487889e-11 -1 897.9152 747.8989)" class="st4" width="28.8" height="1.9"/>
	</g>
	<g>
		<g>
			
				<rect x="452.6" y="381.7" transform="matrix(-1 -4.472967e-11 4.472967e-11 -1 911.223 772.939)" class="st3" width="6" height="9.5"/>
			<path class="st2" d="M459.1,391.7h-7v-10.5h7V391.7z M453.1,390.7h5v-8.5h-5V390.7z"/>
		</g>
		<g>
			<g>
				
					<rect x="452.2" y="391.7" transform="matrix(-1 -4.500856e-11 4.500856e-11 -1 911.165 784.3206)" class="st6" width="6.8" height="1"/>
			</g>
		</g>
	</g>
	<g>
		<g>
			
				<rect x="420.3" y="381.7" transform="matrix(-1 -4.503388e-11 4.503388e-11 -1 846.5875 772.9125)" class="st3" width="6" height="9.5"/>
			<path class="st2" d="M426.8,391.7h-7v-10.5h7V391.7z M420.8,390.7h5v-8.5h-5V390.7z"/>
		</g>
		<g>
			<g>
				
					<rect x="419.8" y="391.7" transform="matrix(-1 -4.500856e-11 4.500856e-11 -1 846.5295 784.2941)" class="st6" width="6.8" height="1"/>
			</g>
		</g>
	</g>
	<g>
		<g>
			
				<rect x="407.3" y="381.7" transform="matrix(-1 -4.503388e-11 4.503388e-11 -1 820.6012 772.939)" class="st3" width="6" height="9.5"/>
			<path class="st2" d="M413.8,391.7h-7v-10.5h7V391.7z M407.8,390.7h5v-8.5h-5V390.7z"/>
		</g>
		<g>
			<g>
				
					<rect x="406.9" y="391.7" transform="matrix(-1 -4.500856e-11 4.500856e-11 -1 820.5433 784.3206)" class="st6" width="6.8" height="1"/>
			</g>
		</g>
	</g>
	<g>
		<g>
			
				<rect x="394.3" y="381.7" transform="matrix(-1 -4.503388e-11 4.503388e-11 -1 794.6149 772.8861)" class="st3" width="6" height="9.5"/>
			<path class="st2" d="M400.8,391.7h-7v-10.5h7V391.7z M394.8,390.7h5v-8.5h-5V390.7z"/>
		</g>
		<g>
			<g>
				
					<rect x="393.9" y="391.7" transform="matrix(-1 -4.474255e-11 4.474255e-11 -1 794.5569 784.2676)" class="st6" width="6.8" height="1"/>
			</g>
		</g>
	</g>
	<g>
		<g>
			
				<rect x="420.3" y="357.5" transform="matrix(-1 -4.503388e-11 4.503388e-11 -1 846.6454 724.39)" class="st3" width="6" height="9.5"/>
			<path class="st2" d="M426.8,367.4h-7V357h7V367.4z M420.8,366.4h5V358h-5V366.4z"/>
		</g>
		<g>
			<g>
				
					<rect x="419.9" y="367.4" transform="matrix(-1 -4.474255e-11 4.474255e-11 -1 846.5875 735.7714)" class="st6" width="6.8" height="1"/>
			</g>
		</g>
	</g>
	<g>
		<g>
			
				<rect x="407.3" y="357.5" transform="matrix(-1 -4.503388e-11 4.503388e-11 -1 820.6592 724.4164)" class="st3" width="6" height="9.5"/>
			<path class="st2" d="M413.8,367.4h-7V357h7V367.4z M407.8,366.4h5V358h-5V366.4z"/>
		</g>
		<g>
			<g>
				
					<rect x="406.9" y="367.4" transform="matrix(-1 -4.474255e-11 4.474255e-11 -1 820.6012 735.7979)" class="st6" width="6.8" height="1"/>
			</g>
		</g>
	</g>
	<g>
		<g>
			
				<rect x="394.3" y="357.5" transform="matrix(-1 -4.472967e-11 4.472967e-11 -1 794.6729 724.3635)" class="st3" width="6" height="9.5"/>
			<path class="st2" d="M400.8,367.4h-7V357h7V367.4z M394.8,366.4h5V358h-5V366.4z"/>
		</g>
		<g>
			<g>
				
					<rect x="393.9" y="367.4" transform="matrix(-1 -4.500856e-11 4.500856e-11 -1 794.6149 735.745)" class="st6" width="6.8" height="1"/>
			</g>
		</g>
	</g>
</g>
<g>
	<g>
		<g>
			<path class="st2" d="M1.9,387.4h0.3c1,0,1.7-0.8,1.7-1.7v-7.9c0-1-0.8-1.7-1.7-1.7H1.9c-1,0-1.7,0.8-1.7,1.7l0,7.9
				C0.2,386.6,1,387.4,1.9,387.4z"/>
		</g>
		<g>
			<path class="st2" d="M27.6,387.6h0.3c1,0,1.7-0.8,1.7-1.7v-7.9c0-1-0.8-1.7-1.7-1.7h-0.3c-1,0-1.7,0.8-1.7,1.7v7.9
				C25.8,386.8,26.6,387.6,27.6,387.6z"/>
		</g>
		<g>
			<rect x="4.7" y="391.1" class="st2" width="3.4" height="8.8"/>
		</g>
		<g>
			<rect x="21.6" y="391.1" class="st2" width="3.4" height="8.8"/>
		</g>
		<g>
			<path class="st8" d="M2.6,396.1l24.6,0l0-21c0-4-3.3-7.3-7.3-7.3H9.9c-4,0-7.3,3.3-7.3,7.3L2.6,396.1z"/>
			<path class="st2" d="M27.7,396.6H2.1V375c0-4.3,3.5-7.8,7.8-7.8h10.1c4.3,0,7.8,3.5,7.8,7.8V396.6z M3.1,395.6h23.6V375
				c0-3.7-3-6.8-6.8-6.8H9.9c-3.7,0-6.8,3-6.8,6.8V395.6z"/>
		</g>
		<g>
			<rect x="2.6" y="376.3" class="st6" width="24.6" height="11.3"/>
			<path class="st2" d="M27.7,388.1H2.1v-12.3h25.6V388.1z M3.1,387.1h23.6v-10.3H3.1V387.1z"/>
		</g>
		<g>
			<rect x="10.2" y="370.2" class="st2" width="8.9" height="3.2"/>
		</g>
		<g>
			<circle class="st2" cx="6.4" cy="391" r="1.5"/>
		</g>
		<g>
			<circle class="st2" cx="23.3" cy="391" r="1.5"/>
		</g>
	</g>
	<g>
		<rect x="36.2" y="377.3" class="st2" width="1" height="22.6"/>
	</g>
	<g>
		<rect x="34.4" y="373" class="st3" width="4.6" height="14.4"/>
		<path class="st2" d="M39.5,387.9h-5.6v-15.4h5.6V387.9z M34.9,386.9h3.6v-13.4h-3.6V386.9z"/>
	</g>
</g>
</svg>
