<?xml version="1.0" encoding="utf-8"?>
<!-- Generator: Adobe Illustrator 20.1.0, SVG Export Plug-In . SVG Version: 6.00 Build 0)  -->
<svg version="1.1" id="Layer_1" xmlns="http://www.w3.org/2000/svg" xmlns:xlink="http://www.w3.org/1999/xlink" x="0px" y="0px"
	 viewBox="0 0 148.4 130.5" style="enable-background:new 0 0 148.4 130.5;" xml:space="preserve">
<style type="text/css">
	.st0{fill:#FFFFFF;}
	.st1{fill:#FFDB4C;}
</style>
<g>
	<path class="st0" d="M116.4,103.5l-8.2,3.6c-2.9,1.3-6.4-0.1-7.7-3c-1.3-2.9,0.1-6.4,3-7.7c0.3-0.1,8.2-3.6,8.2-3.6
		c2.9-1.3,6.4,0.1,7.7,3C120.7,98.8,119.3,102.2,116.4,103.5z"/>
	<path class="st0" d="M117.1,81.1l-14.7,6.4c-2.9,1.3-6.4-0.1-7.7-3c-1.3-2.9,0.1-6.4,3-7.7l14.7-6.4c2.9-1.3,6.4,0.1,7.7,3
		C121.4,76.4,120,79.9,117.1,81.1z"/>
	<path class="st0" d="M113.4,60.7l-16.9,7.4c-2.9,1.3-6.4-0.1-7.7-3c-1.3-2.9,0.1-6.4,3-7.7l16.9-7.4c2.9-1.3,6.4,0.1,7.7,3
		C117.6,56,116.3,59.4,113.4,60.7z"/>
	<path class="st0" d="M136.8,28.4L88.4,49.5c-7.3,3.2-10.6,11.7-7.5,19c1.3,3.1,3.7,5.5,6.4,6.9c-2,3.8-2.4,8.4-0.5,12.6
		c1.3,3.1,3.7,5.5,6.4,6.9c-2,3.8-2.4,8.4-0.5,12.6c0.8,1.9,2,3.5,3.5,4.8l-0.3,0.1c-12,5.2-25.2,4.5-36.2-0.7c-0.6-0.5-1.3-0.9-2-1
		c-8.2-4.5-15.1-11.6-19.1-20.8C34,79.2,33.8,67.4,38,56.6l19.1-43.9c1.2-3,4.6-4.5,7.5-3.3c4.3,1.7,4.5,6.1,4.3,8L62,63.1
		c-0.4,2.3,1.3,4.5,3.6,4.9c0.8,0.1,1.6,0,2.4-0.3c1.3-0.6,2.3-1.8,2.5-3.3l3.2-21.3l58.5-25.4l0,0c2.9-1.3,6.4,0.1,7.6,3
		C141.1,23.7,139.7,27.1,136.8,28.4z"/>
	<path d="M127.9,9.7L127.9,9.7L74.4,33l2.2-14.5c0-0.1,0-0.2,0-0.2c0.7-7.8-3-14.3-9.7-17c-7.4-2.9-15.8,0.7-18.7,8l-19.1,44
		c-0.3,0.8-0.6,1.7-0.9,2.6L3.6,66.6C2.2,67.2,1.2,68.5,1,70s-4.3,37.8,26,59.7c1.2,0.9,2.8,1.1,4.2,0.5l24.3-10.6
		c13.1,6.1,28.6,6.8,42.8,0.6l20.6-9c7.3-3.2,10.7-11.7,7.5-19c-0.9-2.1-2.2-3.8-3.8-5.2c5.1-3.9,7.2-11,4.5-17.2
		c-1.2-2.7-3-4.8-5.3-6.3c2.9-4,3.7-9.4,1.6-14.2c-0.8-1.9-2-3.5-3.5-4.8l19.4-8.4l0,0c7.3-3.2,10.6-11.7,7.5-19
		C143.7,9.9,135.2,6.5,127.9,9.7z M46.4,114.2l-16.3,7.1C9.7,105.1,9,81.1,9.4,73.5l16.5-7.2c-1.1,9.1,0.2,18.3,3.9,26.9
		S39.4,108.9,46.4,114.2z M115.6,103.4l-8.2,3.6c-2.9,1.3-6.4-0.1-7.7-3c-1.3-2.9,0.1-6.4,3-7.7c0.3-0.1,8.2-3.6,8.2-3.6
		c2.9-1.3,6.4,0.1,7.7,3C119.9,98.7,118.5,102.1,115.6,103.4z M116.2,81l-14.7,6.4c-2.9,1.3-6.4-0.1-7.7-3c-1.3-2.9,0.1-6.4,3-7.7
		l14.8-6.4c2.9-1.3,6.4,0.1,7.7,3C120.5,76.3,119.2,79.7,116.2,81z M112.5,60.5l-16.9,7.4c-2.9,1.3-6.4-0.1-7.7-3
		c-1.3-2.9,0.1-6.4,3-7.7l16.9-7.4c2.9-1.3,6.4,0.1,7.7,3C116.8,55.8,115.5,59.3,112.5,60.5z M136,28.3l-48.5,21
		c-7.3,3.2-10.6,11.7-7.5,19c1.3,3.1,3.7,5.5,6.4,6.9c-2,3.8-2.4,8.4-0.5,12.6c1.3,3.1,3.7,5.5,6.4,6.9c-2,3.8-2.4,8.4-0.5,12.6
		c0.8,1.9,2,3.5,3.5,4.8l-0.3,0.1c-12,5.2-25.2,4.5-36.2-0.7c-0.6-0.5-1.3-0.9-2-1c-8.2-4.5-15.1-11.6-19.1-20.8
		c-4.6-10.7-4.8-22.5-0.6-33.3l19.1-43.9c1.2-3,4.6-4.5,7.5-3.3c4.3,1.7,4.5,6.1,4.3,8l-6.9,45.7c-0.4,2.3,1.3,4.5,3.6,4.9
		c0.8,0.1,1.6,0,2.4-0.3c1.3-0.6,2.3-1.8,2.5-3.3l3.2-21.3l58.5-25.4l0,0c2.9-1.3,6.4,0.1,7.6,3C140.3,23.6,138.9,27,136,28.3z"/>
	<path class="st1" d="M46.4,114.2l-16.3,7.1C9.7,105.1,9,81.1,9.4,73.5l16.5-7.2c-1.1,9.1,0.2,18.3,3.9,26.9S39.4,108.9,46.4,114.2z
		"/>
</g>
</svg>
