<?xml version="1.0" encoding="UTF-8" standalone="no"?><!-- Generator: Gravit.io --><svg xmlns="http://www.w3.org/2000/svg" xmlns:xlink="http://www.w3.org/1999/xlink" style="isolation:isolate" viewBox="0 0 678.306 600.148" width="678.306pt" height="600.148pt"><defs><clipPath id="_clipPath_L0mtwK4XFBQDJZWp34JBBih4R1LiwhWQ"><rect width="678.306" height="600.148"/></clipPath></defs><g clip-path="url(#_clipPath_L0mtwK4XFBQDJZWp34JBBih4R1LiwhWQ)"><path d=" M 339.153 547.119 C 151.845 547.119 0 424.643 0 273.56 C 0 122.477 151.845 0 339.153 0 C 526.462 0 678.306 122.477 678.306 273.56 C 678.306 424.643 526.462 547.119 339.153 547.119 L 339.153 547.119 Z  M 391.066 106.953 C 248.695 106.953 133.281 190.683 133.281 293.969 C 133.281 397.256 248.695 480.986 391.066 480.986 C 533.436 480.986 638.504 423.742 638.504 293.969 C 638.504 164.238 533.436 106.953 391.066 106.953 L 391.066 106.953 Z " fill-rule="evenodd" fill="rgb(179,179,179)"/><path d=" M 356.201 436.308 L 356.201 600.148 L 258.921 600.148 L 258.921 153.428 L 470.761 153.428 L 470.761 153.428 Q 501.481 153.428 526.441 163.668 L 526.441 163.668 L 526.441 163.668 Q 551.401 173.908 569.001 192.788 L 569.001 192.788 L 569.001 192.788 Q 586.601 211.668 596.201 237.908 L 596.201 237.908 L 596.201 237.908 Q 605.801 264.148 605.801 296.148 L 605.801 296.148 L 605.801 296.148 Q 605.801 341.588 585.641 375.508 L 585.641 375.508 L 585.641 375.508 Q 565.481 409.428 524.521 424.788 L 524.521 424.788 L 612.201 600.148 L 504.041 600.148 L 425.961 436.308 L 356.201 436.308 Z  M 356.201 354.388 L 458.601 354.388 L 458.601 354.388 Q 480.361 354.388 492.841 343.188 L 492.841 343.188 L 492.841 343.188 Q 505.321 331.988 505.321 310.228 L 505.321 310.228 L 505.321 282.068 L 505.321 282.068 Q 505.321 260.308 492.841 249.108 L 492.841 249.108 L 492.841 249.108 Q 480.361 237.908 458.601 237.908 L 458.601 237.908 L 356.201 237.908 L 356.201 354.388 Z " fill-rule="evenodd" fill="rgb(31,113,163)"/></g></svg>