<svg width="832" height="424" viewBox="0 0 832 424" fill="none" xmlns="http://www.w3.org/2000/svg">
<path d="M38.4964 177.12L0 223H832L774.703 154.713L760.08 172.14L615.644 0L496.275 142.265L438.68 73.622L397.796 122.348L389.739 112.745L364.97 142.265L292.752 56.1946L199.943 166.805L150.106 107.41L115.788 148.311L101.762 131.595L51.0301 192.057L38.4964 177.12Z" fill="#A4CFDA"/>
<g clip-path="url(#clip0)">
<path fill-rule="evenodd" clip-rule="evenodd" d="M192.999 286.619L189.499 284.598C188.564 284.058 187.992 283.056 188 281.977C188.009 280.897 188.597 279.905 189.54 279.379L193.04 277.43L194.5 280.051L191 282L194.5 284.022L192.999 286.619ZM198 286.043L196.499 288.641L203.499 292.685L205 290.087L198 286.043ZM208.5 292.109L206.999 294.706L213.999 298.75L215.5 296.152L208.5 292.109ZM219 298.174L217.499 300.772L224.499 304.815L226 302.217L219 298.174ZM229.5 304.239L227.999 306.837L234.999 310.88L236.5 308.283L229.5 304.239ZM240 310.304L238.499 312.902L245.499 316.946L247 314.348L240 310.304ZM250.5 316.37L248.999 318.967L255.999 323.011L257.5 320.413L250.5 316.37ZM261 322.435L259.499 325.033L266.499 329.076L268 326.478L261 322.435ZM271.5 328.5L269.999 331.098L276.999 335.141L278.5 332.543L271.5 328.5ZM282 334.565L280.499 337.163L287.499 341.206L289 338.609L282 334.565ZM292.5 340.63L290.999 343.228L297.999 347.272L299.5 344.674L292.5 340.63ZM303 346.696L301.499 349.293L308.499 353.337L310 350.739L303 346.696ZM313.5 352.761L311.999 355.359L318.999 359.402L320.5 356.804L313.5 352.761ZM324 358.826L322.499 361.424L329.499 365.467L331 362.87L324 358.826ZM334.5 364.891L332.999 367.489L339.999 371.533L341.5 368.935L334.5 364.891ZM345 370.957L343.499 373.554L350.499 377.598L352 375L345 370.957ZM355.5 377.022L353.999 379.62L360.999 383.663L362.5 381.065L355.5 377.022ZM366 383.087L364.499 385.685L371.5 389.728L373 387.13L366 383.087ZM376.5 389.152L375 391.75L381.999 395.793L383.5 393.196L376.5 389.152ZM387 395.217L385.5 397.815L392.5 401.859L394 399.261L387 395.217ZM397.5 401.283L396 403.88L403 407.924L404.5 405.326L397.5 401.283ZM408 407.348L406.5 409.946L413.5 413.989L415 411.391L408 407.348ZM418.5 413.413L417 416.011L424 420.054L425.5 417.457L418.5 413.413ZM429 419.478L427.5 422.076L430.999 424.098C431.921 424.63 433.056 424.634 433.981 424.109L437.452 422.138L435.971 419.529L432.5 421.5L429 419.478ZM439.442 417.558L440.923 420.167L447.865 416.225L446.384 413.616L439.442 417.558ZM449.855 411.645L451.336 414.254L458.278 410.312L456.797 407.703L449.855 411.645ZM460.268 405.732L461.749 408.341L468.691 404.399L467.21 401.79L460.268 405.732ZM470.681 399.819L472.163 402.428L479.105 398.486L477.623 395.877L470.681 399.819ZM481.094 393.906L482.576 396.515L489.518 392.572L488.036 389.964L481.094 393.906ZM491.507 387.993L492.989 390.601L499.931 386.659L498.449 384.051L491.507 387.993ZM501.92 382.08L503.402 384.688L510.344 380.746L508.862 378.138L501.92 382.08ZM512.333 376.167L513.815 378.775L520.757 374.833L519.275 372.225L512.333 376.167ZM522.746 370.254L524.228 372.862L531.17 368.92L529.688 366.312L522.746 370.254ZM533.159 364.341L534.641 366.949L541.583 363.007L540.101 360.399L533.159 364.341ZM543.572 358.427L545.054 361.036L551.996 357.094L550.515 354.485L543.572 358.427ZM553.986 352.514L555.467 355.123L562.409 351.181L560.928 348.572L553.986 352.514ZM564.399 346.601L565.88 349.21L572.822 345.268L571.341 342.659L564.399 346.601ZM574.812 340.688L576.293 343.297L583.235 339.355L581.754 336.746L574.812 340.688ZM585.225 334.775L586.706 337.384L593.648 333.442L592.167 330.833L585.225 334.775ZM595.638 328.862L597.119 331.471L604.061 327.529L602.58 324.92L595.638 328.862ZM606.051 322.949L607.532 325.558L614.474 321.616L612.993 319.007L606.051 322.949ZM616.464 317.036L617.945 319.645L624.887 315.703L623.406 313.094L616.464 317.036ZM626.877 311.123L628.358 313.732L635.3 309.79L633.819 307.181L626.877 311.123ZM637.29 305.21L638.771 307.819L645.713 303.877L644.232 301.268L637.29 305.21ZM647.703 299.297L649.184 301.906L656.126 297.964L654.645 295.355L647.703 299.297ZM658.116 293.384L659.597 295.993L666.539 292.051L665.058 289.442L658.116 293.384ZM668.529 287.471L670.01 290.08L673.481 288.109C674.417 287.577 674.997 286.586 675 285.509C675.003 284.433 674.43 283.438 673.498 282.901L670.027 280.901L668.529 283.5L672 285.5L668.529 287.471ZM665.058 281.5L666.556 278.901L659.614 274.901L658.116 277.5L665.058 281.5ZM654.645 275.5L656.143 272.901L649.201 268.901L647.703 271.5L654.645 275.5ZM644.232 269.5L645.73 266.901L638.788 262.901L637.29 265.5L644.232 269.5ZM633.819 263.5L635.317 260.901L628.375 256.901L626.877 259.5L633.819 263.5ZM623.406 257.5L624.904 254.901L617.962 250.901L616.464 253.5L623.406 257.5ZM612.993 251.5L614.491 248.901L607.548 244.901L606.051 247.5L612.993 251.5ZM602.58 245.5L604.077 242.901L597.135 238.901L595.638 241.5L602.58 245.5ZM592.167 239.5L593.664 236.901L586.722 232.901L585.225 235.5L592.167 239.5ZM581.754 233.5L583.251 230.901L576.309 226.901L574.812 229.5L581.754 233.5ZM571.341 227.5L572.838 224.901L565.896 220.901L564.399 223.5L571.341 227.5ZM560.928 221.5L562.425 218.901L555.483 214.901L553.985 217.5L560.928 221.5ZM550.514 215.5L552.012 212.901L545.07 208.901L543.572 211.5L550.514 215.5ZM540.101 209.5L541.599 206.901L534.657 202.901L533.159 205.5L540.101 209.5ZM529.688 203.5L531.186 200.901L524.244 196.901L522.746 199.5L529.688 203.5ZM519.275 197.5L520.773 194.901L513.831 190.901L512.333 193.5L519.275 197.5ZM508.862 191.5L510.36 188.901L503.418 184.901L501.92 187.5L508.862 191.5ZM498.449 185.5L499.947 182.901L493.005 178.901L491.507 181.5L498.449 185.5ZM488.036 179.5L489.534 176.901L482.592 172.901L481.094 175.5L488.036 179.5ZM477.623 173.5L479.121 170.901L472.179 166.901L470.681 169.5L477.623 173.5ZM467.21 167.5L468.708 164.901L461.766 160.901L460.268 163.5L467.21 167.5ZM456.797 161.5L458.295 158.901L451.353 154.901L449.855 157.5L456.797 161.5ZM446.384 155.5L447.882 152.901L440.94 148.901L439.442 151.5L446.384 155.5ZM435.971 149.5L437.469 146.901L433.998 144.901C433.084 144.374 431.961 144.366 431.04 144.879L427.54 146.828L429 149.449L432.5 147.5L435.971 149.5ZM425.5 151.399L424.04 148.778L417.04 152.676L418.5 155.297L425.5 151.399ZM415 157.246L413.54 154.625L406.54 158.524L408 161.145L415 157.246ZM404.5 163.094L403.04 160.473L396.04 164.372L397.5 166.993L404.5 163.094ZM394 168.942L392.54 166.321L385.54 170.22L387 172.841L394 168.942ZM383.5 174.79L382.04 172.169L375.04 176.067L376.5 178.688L383.5 174.79ZM373 180.638L371.54 178.017L364.54 181.915L366 184.536L373 180.638ZM362.5 186.486L361.04 183.865L354.04 187.763L355.5 190.384L362.5 186.486ZM352 192.333L350.54 189.712L343.54 193.611L345 196.232L352 192.333ZM341.5 198.181L340.04 195.56L333.04 199.459L334.5 202.08L341.5 198.181ZM331 204.029L329.54 201.408L322.54 205.307L324 207.928L331 204.029ZM320.5 209.877L319.04 207.256L312.04 211.154L313.5 213.775L320.5 209.877ZM310 215.725L308.54 213.104L301.54 217.002L303 219.623L310 215.725ZM299.5 221.572L298.04 218.952L291.04 222.85L292.5 225.471L299.5 221.572ZM289 227.42L287.54 224.799L280.54 228.698L282 231.319L289 227.42ZM278.5 233.268L277.04 230.647L270.04 234.546L271.5 237.167L278.5 233.268ZM268 239.116L266.54 236.495L259.54 240.394L261 243.015L268 239.116ZM257.5 244.964L256.04 242.343L249.04 246.241L250.5 248.862L257.5 244.964ZM247 250.812L245.54 248.191L238.54 252.089L240 254.71L247 250.812ZM236.5 256.659L235.04 254.038L228.04 257.937L229.5 260.558L236.5 256.659ZM226 262.507L224.54 259.886L217.54 263.785L219 266.406L226 262.507ZM215.5 268.355L214.04 265.734L207.04 269.633L208.5 272.254L215.5 268.355ZM205 274.203L203.54 271.582L196.54 275.481L198 278.101L205 274.203Z" fill="#005866"/>
<path opacity="0.3" d="M225.403 279.422L314.098 331.041L225.403 279.422Z" fill="#00C0F4" stroke="#1B1464" stroke-miterlimit="10" stroke-linecap="round" stroke-linejoin="round"/>
<path opacity="0.3" d="M314.102 331.043L434.585 401.174L314.102 331.043Z" stroke="#1B1464" stroke-miterlimit="10" stroke-linecap="round" stroke-linejoin="round"/>
<path opacity="0.3" d="M555.064 331.041L643.741 279.422L555.064 331.041Z" fill="#00C0F4" stroke="#1B1464" stroke-miterlimit="10" stroke-linecap="round" stroke-linejoin="round"/>
<path opacity="0.3" d="M603.328 233.382L601.73 232.473L602.813 233.685L603.328 233.382Z" stroke="#1B1464" stroke-miterlimit="10" stroke-linecap="round" stroke-linejoin="round"/>
<path opacity="0.3" d="M265.834 233.364L266.349 233.667L267.397 232.49L265.834 233.364Z" stroke="#1B1464" stroke-miterlimit="10" stroke-linecap="round" stroke-linejoin="round"/>
<path d="M558.084 259.708L582.918 245.253L602.813 233.685L601.73 232.473L540.089 197.84L523.249 188.393L476.708 162.245L434.59 138.592H434.572L392.188 162.405L345.931 188.393L328.842 197.983L267.397 232.491L266.349 233.667L286.244 245.253L311.096 259.708L433.631 331.041" fill="#5B9BAA"/>
<path d="M558.084 259.708L582.918 245.253L602.813 233.685L601.73 232.473L540.089 197.84L523.249 188.393L476.708 162.245L434.59 138.592H434.572L392.188 162.405L345.931 188.393L328.842 197.983L267.397 232.491L266.349 233.667L286.244 245.253L311.096 259.708L433.631 331.041" stroke="#497C8B" stroke-miterlimit="10"/>
<path d="M311.096 259.708L286.244 245.253L266.349 233.667L243.043 259.708L225.403 279.422L314.098 331.041L434.572 401.162L434.323 331.433L311.096 259.708Z" fill="#8EC4D0" stroke="#497C8B" stroke-miterlimit="10"/>
<path d="M625.853 259.708L602.547 233.667L582.669 245.253L557.817 259.708L435.283 331.041L434.323 331.593V401.162L554.798 331.041L643.492 279.404L625.853 259.708Z" fill="#6BACBE" stroke="#497C8B" stroke-miterlimit="10"/>
<g opacity="0.8">
<g opacity="0.8">
<path opacity="0.8" d="M324.383 311.096L329.73 293.218L331.435 294.234L327.119 308.654L330.103 310.436L329.073 313.894L324.383 311.096Z" fill="#17272B"/>
<path opacity="0.8" d="M335.432 317.691L336.143 313.11L333.532 311.541L331.702 315.462L329.979 314.429L337.901 298.102L340.015 299.367L337.209 318.76L335.432 317.691ZM337.884 302.255L337.83 302.219L334.935 308.493L336.729 309.563L337.884 302.255Z" fill="#17272B"/>
<path opacity="0.8" d="M345.096 302.415L341.809 313.377C341.063 315.89 341.081 317.387 342.094 317.976C343.106 318.564 343.888 317.566 344.634 315.053L347.92 304.091L349.572 305.089L346.41 315.641C344.829 320.917 343.302 322.77 341.063 321.434C338.825 320.097 338.701 317.245 340.282 311.969L343.444 301.417L345.096 302.415Z" fill="#17272B"/>
</g>
</g>
<path d="M434.306 253.469V253.023L434.092 253.148L348.986 203.614L328.593 191.744L308.485 180.033L306.619 182.136L267.13 226.251L266.082 227.428L285.978 238.996L310.829 253.469L433.364 324.802L434.306 325.336L434.323 325.354V324.802V253.469H434.306Z" fill="#8EC4D0" stroke="#497C8B" stroke-miterlimit="10"/>
<path opacity="0.3" d="M603.08 227.125L601.481 226.234L602.547 227.428L603.08 227.125Z" stroke="#1B1464" stroke-miterlimit="10" stroke-linecap="round" stroke-linejoin="round"/>
<path opacity="0.3" d="M434.306 253.024V253.47V253.024Z" stroke="#1B1464" stroke-miterlimit="10" stroke-linecap="round" stroke-linejoin="round"/>
<path d="M601.463 226.234L562.01 182.137L559.789 179.962L539.823 191.602L519.412 203.473L434.306 253.024V253.47V325.07L557.817 253.47L582.669 239.014L602.547 227.428L601.463 226.234Z" fill="#6BACBE" stroke="#497C8B" stroke-miterlimit="10"/>
<g opacity="0.8">
<g opacity="0.8">
<path opacity="0.8" d="M343.266 237.089L343.586 233.061L343.55 233.043L339.944 245.074L338.346 244.112L343.692 226.234L345.558 227.339L345.167 237.071L344.847 241.1L344.883 241.117L348.489 229.086L350.087 230.049L344.74 247.926L342.875 246.821L343.266 237.089Z" fill="#17272B"/>
<path opacity="0.8" d="M353.551 232.116L350.265 243.078C349.519 245.591 349.537 247.089 350.549 247.677C351.562 248.265 352.343 247.267 353.089 244.754L356.376 233.792L358.028 234.772L354.866 245.324C353.285 250.6 351.757 252.454 349.519 251.117C347.281 249.78 347.156 246.928 348.737 241.652L351.899 231.1L353.551 232.116Z" fill="#17272B"/>
<path opacity="0.8" d="M362.042 241.26L357.726 255.68L356.021 254.664L360.337 240.244L358.223 238.979L359.254 235.521L365.187 239.068L364.156 242.526L362.042 241.26Z" fill="#17272B"/>
<path opacity="0.8" d="M361.332 254.789L363.233 252.864C363.357 254.539 363.819 255.626 364.583 256.09C365.418 256.589 366.075 255.983 366.466 254.682C366.75 253.701 366.785 252.882 366.128 252.222L365.418 251.527C363.908 250.047 363.712 247.766 364.618 244.771C365.577 241.563 367.354 239.995 369.184 241.1C370.356 241.795 370.978 243.239 371.138 245.235L369.219 247.178C369.148 245.966 368.846 244.968 368.047 244.486C367.283 244.041 366.714 244.468 366.395 245.556C366.022 246.786 366.164 247.409 366.75 248.033L367.443 248.782C368.864 250.333 369.148 252.436 368.224 255.502C367.194 258.924 365.382 260.653 363.428 259.494C362.06 258.639 361.492 256.874 361.332 254.789Z" fill="#17272B"/>
<path opacity="0.8" d="M376.165 253.951C377 254.45 377.604 253.844 377.941 252.739L377.994 252.561C378.385 251.277 378.243 250.172 377.586 249.78C376.964 249.406 376.165 249.834 375.365 250.957L374.992 248.069C376.111 246.661 377.248 245.877 378.581 246.679C380.268 247.677 380.783 250.208 379.931 253.06C379.256 255.341 378.136 256.339 377.23 256.197L377.177 256.357C377.994 257.302 378.243 259.174 377.515 261.633C376.555 264.824 374.744 266.196 372.967 265.127C371.386 264.182 371.066 262.097 371.102 259.976L373.003 258.514C372.896 260.172 373.056 261.508 373.891 262.008C374.655 262.471 375.383 261.794 375.827 260.296L375.88 260.136C376.325 258.674 376.023 257.623 375.17 257.124L374.459 256.696L375.419 253.488L376.165 253.951Z" fill="#17272B"/>
</g>
</g>
<path d="M496.124 144.439L436.277 110.822L434.306 109.717L434.004 109.539L433.009 108.986L430.735 110.269L429.74 110.822L370.658 144.011L309.977 178.091L308.183 180.105L311.789 182.19L328.273 191.798L348.666 203.669L433.79 253.202L434.004 253.078L519.092 203.544L539.503 191.655L555.757 182.19L559.487 180.034L496.124 144.439Z" fill="#5B9BAA" stroke="#497C8B" stroke-miterlimit="10"/>
<path d="M351.562 127.559L372.452 139.715L392.436 151.354L412.847 163.225L434.572 175.881V177.485V248.372L349.483 198.838L329.073 186.949L312.819 177.485L309.089 175.31L308.964 175.15L351.562 127.559Z" fill="#8EC4D0" stroke="#497C8B" stroke-miterlimit="10"/>
<g opacity="0.3">
<path opacity="0.3" d="M516.765 126.65L517.582 127.559L517.991 127.327L516.765 126.65Z" fill="#1B1464"/>
</g>
<path d="M516.765 126.65L480.207 106.116L456.173 92.6234L435.549 81.0377L434.572 81.5724V81.5902L411.959 94.2811L390.891 106.116L351.864 128.022L371.226 139.305L392.188 151.515L412.598 163.386L434.306 176.023L434.572 175.881L456.297 163.225L476.708 151.354L496.692 139.715L517.582 127.559L516.765 126.65Z" fill="#5B9BAA" stroke="#497C8B" stroke-miterlimit="10"/>
<g opacity="0.8">
<g opacity="0.8">
<path opacity="0.8" d="M362.931 173.314L363.25 169.286L363.215 169.268L359.609 181.299L358.01 180.337L363.357 162.459L365.222 163.564L364.831 173.296L364.512 177.324L364.547 177.342L368.153 165.311L369.752 166.273L364.405 184.151L362.54 183.046L362.931 173.314Z" fill="#17272B"/>
<path opacity="0.8" d="M373.216 168.341L369.93 179.303C369.183 181.816 369.201 183.313 370.214 183.902C371.226 184.49 372.008 183.492 372.754 180.978L376.04 170.016L377.692 170.997L374.53 181.549C372.949 186.825 371.422 188.678 369.183 187.342C366.945 186.005 366.821 183.153 368.402 177.877L371.564 167.325L373.216 168.341Z" fill="#17272B"/>
<path opacity="0.8" d="M381.707 177.485L377.39 191.905L375.685 190.889L380.002 176.469L377.888 175.203L378.918 171.745L384.851 175.292L383.821 178.75L381.707 177.485Z" fill="#17272B"/>
<path opacity="0.8" d="M380.996 191.013L382.897 189.088C383.021 190.764 383.483 191.851 384.247 192.315C385.082 192.814 385.739 192.208 386.13 190.906C386.414 189.926 386.45 189.106 385.793 188.447L385.082 187.752C383.572 186.272 383.377 183.991 384.283 180.996C385.242 177.788 387.018 176.219 388.848 177.324C390.02 178.019 390.642 179.463 390.802 181.46L388.883 183.402C388.812 182.19 388.51 181.192 387.711 180.711C386.947 180.265 386.379 180.693 386.059 181.78C385.686 183.01 385.828 183.634 386.414 184.258L387.107 185.007C388.528 186.557 388.812 188.661 387.889 191.726C386.858 195.149 385.046 196.878 383.092 195.719C381.725 194.863 381.156 193.099 380.996 191.013Z" fill="#17272B"/>
<path opacity="0.8" d="M395.829 202.92L390.287 199.623L391.335 196.111L395.154 192.849C396.54 191.655 397.144 190.835 397.588 189.32L397.694 188.964C398.103 187.609 397.783 186.593 397.286 186.308C396.54 185.862 395.847 186.807 395.278 188.072L394.195 185.916C395.278 183.634 396.806 182.101 398.44 183.082C400.128 184.098 400.43 186.949 399.488 190.051C398.565 193.117 397.037 194.418 395.314 195.772L393.076 197.519L396.771 199.729L395.829 202.92Z" fill="#17272B"/>
</g>
</g>
<path d="M517.742 127.773L496.834 139.929L476.85 151.568L456.439 163.439L434.732 176.077V177.699V248.586L519.821 199.034L540.231 187.163L556.485 177.699L560.216 175.524L560.34 175.364L517.742 127.773Z" fill="#6BACBE" stroke="#497C8B" stroke-miterlimit="10"/>
<path opacity="0.3" d="M434.608 101.019V122.604V101.019Z" stroke="#1B1464" stroke-miterlimit="10" stroke-linecap="round" stroke-linejoin="round"/>
<path d="M411.994 89.2012L391.868 77.4728L370.8 101.019L351.42 122.657L371.262 134.207L392.223 146.417L412.634 158.288L434.341 170.943L434.608 170.783V145.954V122.622V102.373L411.994 89.2012Z" fill="#8EC4D0" stroke="#497C8B" stroke-miterlimit="10"/>
<path d="M457.221 89.9498L477.347 78.2393L498.415 101.785L517.778 123.424L497.953 134.974L476.992 147.166L456.581 159.055L434.874 171.692L434.608 171.549V146.702V123.37V103.122L457.221 89.9498Z" fill="#6BACBE" stroke="#497C8B" stroke-miterlimit="10"/>
<g opacity="0.8">
<g opacity="0.8">
<path opacity="0.8" d="M384.993 109.663L385.313 105.635L385.278 105.617L381.671 117.649L380.073 116.686L385.42 98.8085L387.285 99.9136L386.894 109.646L386.574 113.674L386.61 113.692L390.216 101.66L391.815 102.623L386.468 120.501L384.603 119.396L384.993 109.663Z" fill="#17272B"/>
<path opacity="0.8" d="M395.279 104.708L391.992 115.67C391.246 118.183 391.264 119.681 392.277 120.269C393.289 120.857 394.071 119.859 394.817 117.346L398.103 106.384L399.755 107.364L396.593 117.916C395.012 123.192 393.484 125.046 391.246 123.709C389.008 122.372 388.884 119.52 390.465 114.244L393.627 103.692L395.279 104.708Z" fill="#17272B"/>
<path opacity="0.8" d="M403.77 113.852L399.453 128.272L397.748 127.256L402.064 112.836L399.95 111.571L400.981 108.113L406.914 111.66L405.884 115.118L403.77 113.852Z" fill="#17272B"/>
<path opacity="0.8" d="M403.059 127.363L404.96 125.438C405.084 127.113 405.546 128.201 406.31 128.664C407.145 129.163 407.802 128.557 408.193 127.256C408.477 126.276 408.513 125.456 407.855 124.796L407.145 124.101C405.635 122.622 405.439 120.34 406.345 117.346C407.305 114.137 409.081 112.569 410.911 113.674C412.083 114.369 412.705 115.813 412.865 117.809L410.946 119.752C410.875 118.54 410.573 117.542 409.774 117.061C409.01 116.615 408.442 117.043 408.122 118.13C407.749 119.36 407.891 119.984 408.477 120.608L409.17 121.356C410.591 122.907 410.875 125.01 409.951 128.076C408.921 131.498 407.109 133.227 405.155 132.069C403.787 131.213 403.219 129.466 403.059 127.363Z" fill="#17272B"/>
<path opacity="0.8" d="M412.758 136.222L413.682 133.12L415.796 134.386L419.384 122.408L419.277 122.354L416.258 126.169L415.76 123.602L419.313 119.092L421.889 120.625L417.466 135.402L419.118 136.4L418.194 139.501L412.758 136.222Z" fill="#17272B"/>
</g>
</g>
<path d="M435.958 55.2281L435.851 55.1568L391.442 78.2393L413.327 91.1618L434.181 103.122L436.26 101.892L457.558 89.5042L476.921 78.2393L435.958 55.2281Z" fill="#5B9BAA" stroke="#497C8B" stroke-miterlimit="10"/>
<path d="M434.714 26.3171V49.8274V26.3171Z" stroke="#497C8B" stroke-miterlimit="10" stroke-linejoin="round"/>
<path opacity="0.3" d="M434.474 96.7747L434.955 97.5656L434.474 96.7747Z" stroke="#497C8B" stroke-miterlimit="10" stroke-linejoin="round"/>
<path opacity="0.3" d="M428.9 71.4948L440.572 51.4176L428.9 71.4948Z" stroke="#497C8B" stroke-miterlimit="10" stroke-linejoin="round"/>
<path opacity="0.3" d="M434.714 73.088V96.3309V73.088Z" stroke="#497C8B" stroke-miterlimit="10" stroke-linejoin="round"/>
<path d="M434.714 26.3171L392.632 73.3554L391.992 74.0684L412.101 85.7967L431.446 97.0617L434.732 98.9867L434.714 96.3309V73.088V49.8452V26.3171Z" fill="#8EC4D0" stroke="#497C8B" stroke-miterlimit="10"/>
<path opacity="0.3" d="M434.714 96.3487V96.6874V96.3487Z" stroke="#497C8B" stroke-miterlimit="10" stroke-linejoin="round"/>
<path d="M434.732 26.3171L476.814 73.3554L477.472 74.0684L457.345 85.7967L438 97.0617L434.732 98.9867V96.3309V73.088V49.8452V26.3171Z" fill="#6BACBE" stroke="#497C8B" stroke-miterlimit="10" stroke-linecap="round" stroke-linejoin="round"/>
</g>
<defs>
<clipPath id="clip0">
<rect width="486" height="397" fill="white" transform="translate(188 27)"/>
</clipPath>
</defs>
</svg>
